<?xml version="1.0" encoding="iso-8859-1"?>
<!-- Generator: Adobe Illustrator 21.0.2, SVG Export Plug-In . SVG Version: 6.00 Build 0)  -->
<svg version="1.1" id="Layer_1" xmlns="http://www.w3.org/2000/svg" xmlns:xlink="http://www.w3.org/1999/xlink" x="0px" y="0px"
	 viewBox="0 0 1366 768" style="enable-background:new 0 0 1366 768;" xml:space="preserve">
<path style="fill:#AB8750;" d="M1166,414c-5.1-1.9-5.3-0.9-8.7-4.6s0.4-2.6-6.1-4.2s-5.1,2.3-5.1,2.3s-6.3-2.6-7.8-6
	s-14.1-0.7-21.4-1.4s-4-0.6-8-5s-7.9-5.5-11.4-5s-31.5,2.2-31.5,2.2s-5.4-0.4-6.2-3.6c-0.5-2.6-0.8-5.3-0.7-8c0,0-3.5-3.2-6.8-3.8
	c-2-0.3-3.7-1.4-4.9-2.9c-1.5-0.9-2.9-2-4.2-3.3c-1.7-1.9-2-4-8-5s-9.7,1-11.6,0.7c-1.8-0.1-3.6-0.8-5.1-1.9
	c-1.8-1.4,0.3-1.5-0.7-3.8s-4.6-0.8-9.2-1.5s-4.8,4.5-4.8,4.5l-5.2-1.4l-3-2.1c-3-2.1-2.6-1-6.5-1.6s-2,3.9-5.1,6s-1,2-3.2,3.2
	s-3.5-3.2-6.3-6.8s-7.7-2.8-15.3,2.8c-4.2,3.3-10.1,3.2-14.2-0.2c0,0-4.2-3.3-6.7-4.8s-3.6-2.7-9.2-2s-7.5,4.6-11.8,6
	s-4.9,0.8-8-0.8s-2.7-4.1-9-7.3s-9.2,2.2-11.1,1.9s-6-0.5-8.4-2.4s-8.1-8.2-12.8-8.4s-10.1,7.8-12.3,9s0,0-6.4-2.1
	s-7.3-0.7-10.6-1.2s-5.3-0.9-7.7-2.8s-2.3-6.7-5.9-9.4s-3.7,2-4.6,3.5s-9.6,4.8-9.6,4.8s-3.6,5.2-4,7.8s-2.2,1.2-10.3,0.9
	s-10.1-0.6-12-1.4s-2.6-4.6-5.6-7.3s-12.4,1.1-12.4,1.1s-2,3.9-6.1,4.3s-7.5,4.6-7.5,4.6s-3.6-2.7-3.9-4.9s-11.3-1.3-14.3,0.3
	s-2.9,1.1-3.9-1.2s-3.6-6.9-7.7-7.1s-3.6,5.2-7.5,8.3s-5.4,3.9-7.3,3.5s-7,1.5-9.3,3.2s-5.8,2.2-6.2,4.8s-5.7,5.9-7.9,6.6
	s-10.5-6-11.9-5.6c0,0-1.7-6.1-5.5-7.8s-6-0.5-11.3,2.9s-1.7,6.1-5.1,6.5s-8.1-0.3-11.1,1.4s-4.6,3.5-12,2.8s-4-4.4-13.9-6
	s-12.5,5.9-12.5,5.9l-5-2c-5.1-1.9-6.7-0.6-8.3,0.8s-11.4,3.4-18.7,2.2s-6.9-3.2-11.4-5s-4.4,1.9-8.7,3.3s-4.8,0.3-9.7-2.6
	s-8.1,4-14.5,5.5s-6.7,3.6-14.8,3.4s-5.3-5.1-10-4.8s-15.8,1.1-15.8,1.1l-0.8-3.3l-10.1-0.6l-0.9-2.8c-0.9-2.8-5.2-5.6-7.8-6
	s-6.1,4.3-6.5,6.8s-0.6,3.6-5.9,7s-6.1,0-8.7-0.4s-5.4-4.6-14.7-5.6s-1.4,4.5-6.2,4.8s-3.9-4.9-5-2.4s-7.4,4-10.9,4.5
	s-1.5-3.4-3.5-7.4s-5.4,0.2-10.2,0.4s-9,9.6-9.4,11.6s-8-0.8-9.6-3.7s-6.4-2.1-9.6-3.2s-11.7,1.2-14.4,0.8s-3.2-1-4.3-2.8
	s-4.6-5-10.5-6s-7.9,6.6-10.9,4.5s-4.3-6.5-7.2-5.4s-5.6,9.6-6.2,13.2s-3.4,4.2-6.7,3.6s-5.4-4.1-8.6-5.1s-3.6-2.7-3.6-2.7
	c-1.6-2-3.3-3.9-5.2-5.6c-1.8-1.4-2.5,2.8-5.3,3.4s-2.5-1.5-2.9-3.1s-3.1-10-6.4-10.5s-8.5,14.4-8.5,14.4s-3.7-6.4-6.3-6.8
	s-3.7,2-5.5,4.9s-1.3,3.5-9.4,3.7s-44.5,10-47.8,13.7c0,0,144,15.2,248.9,19.8c88.2,3.8,575.3,22.4,727.1,26.8v-18.1
	C1169.3,415.1,1167.6,414.6,1166,414z"/>
<path style="fill:#AB8750;" d="M623.5,369.7c-2.2-1.4-2.6-3.5-9.5-4.7c-2-0.4-4-0.3-6,0.2l-5.2,6.3l10.5-4.7l-18.7,11.5l23.2-8.5
	L623.5,369.7z"/>
<path style="fill:#AB8750;" d="M820.2,342.4c-0.9,1.4-9.6,4.8-9.6,4.8s-3.6,5.2-4,7.8c-0.4,2.3-1.8,1.5-7.8,1.1
	c2.5,2.2,5.3,3.8,6.8,1.5c3-4.5,12.9-8.6,14.8-11.7c1.1-1.8,1.7-3.9,1.8-6l2.5-1C821.2,336.4,821.1,341,820.2,342.4z"/>
<path style="fill:#AB8750;" d="M760.2,352.7c-4.1,0.4-7.5,4.6-7.5,4.6l12.3-2.7l11.3-7.3l-6.5,0.1c-2,0.5-3.5,1.1-3.5,1.1
	S764.4,352.3,760.2,352.7z"/>
<path style="fill:#AB8750;" d="M667.3,357.5c-3.8-1.7-6-0.5-11.3,2.9s-1.7,6.1-5.1,6.5s-8.1-0.3-11.1,1.4c-1.2,0.7-2.2,1.4-3.4,1.9
	c0.7,0.5,2.7,0.8,8.1-0.3c9-1.8,11.2-4.7,11.5-6.5s10.2-5.8,10.2-5.8l-3,5l3.3-1.8l-1,3l3.5-3.5l-2.8-0.5l3.3-0.7
	C668.8,358.4,668.1,357.8,667.3,357.5z"/>
<path style="fill:#AB8750;" d="M889,356.4c-2-0.3-6-0.5-8.4-2.4s-8.1-8.2-12.8-8.4s-10.1,7.8-12.3,9s0,0-6.4-2.1
	c-2.2-0.8-4.4-1.2-6.7-1.2l13.2,8l8.8-8.3l15.3,14.5l17-9.3h6.6c-0.9-0.7-1.9-1.2-2.9-1.7C893.9,351.4,891,356.7,889,356.4z"/>
<path style="fill:#AB8750;" d="M931.1,356.4c-0.6,0-1.4,0.1-2.2,0.2c-2.1,0.3-4,1-5.7,2.3l-7.3,6.5l8.2-4.3l3.5-2.8l-2.3,4.2
	L931.1,356.4z"/>
<path style="fill:#AB8750;" d="M587.5,373.5l7.3-5c-3.9-1.1-5.3,0.1-6.7,1.3c-1.6,1.3-11.4,3.4-18.7,2.2s-6.9-3.2-11.4-5
	s-4.4,1.9-8.7,3.3s-4.8,0.3-9.7-2.6s-8.1,4-14.5,5.5s-6.7,3.6-14.8,3.4s-5.3-5.1-10-4.8c-2.6,0.1-7.1,0.5-10.6,0.7l5.6,4.8l37.5,4.2
	l3.3-10.8l-7,6.5l7.8-9.8l4,7.5l17.5-2.8l-7.3,6L587.5,373.5z"/>
<path style="fill:#AB8750;" d="M830.3,353.9l1.3-4.9c-0.3-0.2-0.6-0.4-0.8-0.6c-0.9-0.9-1.6-2-2-3.2l-7.1,7.1l6.3-3.6L830.3,353.9z"
	/>
<path style="fill:#AB8750;" d="M364.8,372.7c-2.2-0.7-6.7,0.1-10.3,0.6c2.5,1.8,5.4,3,8.4,3.4c3.9,0.2,7.9,0.2,11.8-0.3
	c-0.1-0.2-0.3-0.4-0.4-0.5C372.9,373,368,373.8,364.8,372.7z"/>
<path style="fill:#AB8750;" d="M283.3,370l1.1,2.4l3.6-4.3c-0.3-0.2-0.5-0.5-0.8-0.7C285.7,366.3,285,368.7,283.3,370z"/>
<path style="fill:#AB8750;" d="M199,387.4l7.5,0.8l39.2-11.2l9.3-6l9.3,5.7l8-17.7h2.8c-0.6-1-1.5-1.7-2.6-2
	c-3.3-0.5-8.5,14.4-8.5,14.4s-3.7-6.4-6.3-6.8s-3.7,2-5.5,4.9s-1.3,3.5-9.4,3.7c-6.8,0.2-33.3,7.1-43.7,11.5L199,387.4z"/>
<path style="fill:#AB8750;" d="M462.5,371.5l-0.8-7.2l8.1,0.3l1.7-0.7c-1.7-1.9-4-3.2-6.4-3.8c-2.6-0.4-6.1,4.3-6.5,6.8
	s-0.6,3.6-5.9,7s-6.1,0-8.7-0.4c-2.4-0.4-4.9-3.9-12.4-5.2l17.5,9L462.5,371.5z"/>
<path style="fill:#AB8750;" d="M317.5,363.9c-2.9,1.1-5.6,9.6-6.2,13.2s-3.4,4.2-6.7,3.6c-1.2-0.3-2.4-0.8-3.3-1.6
	c2.8,2.2,5.5,3.6,7.4,2.8c4.7-1.8,8.6-13,12-17C319.8,364,318.8,363.4,317.5,363.9z"/>
<path style="fill:#AB8750;" d="M327.4,369c0.7,0.4,1.8,0.5,3.6,0c3.7-0.9,9.7-0.3,14.2,0.5c-2.6-2.6-6-4.2-9.6-4.7
	C331.5,364.1,329.4,367.5,327.4,369z"/>
<path style="fill:#AB8750;" d="M715.5,352.7c-3.9,3-5.4,3.9-7.3,3.5s-7,1.5-9.3,3.2s-5.8,2.2-6.2,4.8s-5.5,5.8-7.7,6.6
	c3.6,2.2,7.5,2.7,10.9-1c9.5-10.2,16.3-12.3,16.3-12.3s9.3-6.2,9.8-9c0.3-1.6,2.5-2.4,4.7-2.5c-1-0.9-2.4-1.5-3.7-1.5
	C718.9,344.3,719.4,349.6,715.5,352.7z"/>
<path style="fill:#AB8750;" d="M741.8,353.5c2.1-0.8,4.4-1.3,6.6-1.7c-1.6-1.2-8.1-0.9-11.9,0.1
	C738.5,353.2,740.4,354.1,741.8,353.5z"/>
<path style="fill:#AB8750;" d="M388,378c5.3-5.3,11-9.3,12.3-8.7s4.3,9,4.3,9l15.2-6.7c-1.2-1.3-1.1-3-1.8-1.3
	c-1.1,2.5-7.4,4-10.9,4.5s-1.5-3.4-3.5-7.4s-5.4,0.2-10.2,0.4s-9,9.6-9.4,11.6c-0.1,0.9-1.6,0.9-3.3,0.4l-0.4,1.8
	C380.3,381.7,382.7,383.3,388,378z"/>
</svg>
