<?xml version="1.0" encoding="utf-8"?>
<!-- Generator: Adobe Illustrator 21.0.2, SVG Export Plug-In . SVG Version: 6.00 Build 0)  -->
<svg version="1.1" id="Layer_1" xmlns="http://www.w3.org/2000/svg" xmlns:xlink="http://www.w3.org/1999/xlink" x="0px" y="0px"
	 viewBox="0 0 1366 768" style="enable-background:new 0 0 1366 768;" xml:space="preserve">
<style type="text/css">
	.st0{fill:#532D9B;}
	.st1{fill:#AB8750;}
	.st2{fill:#F7931E;}
</style>
<path class="st0" d="M1362.7,460.5c-5.1-1.9-5.3-0.9-8.7-4.6s0.4-2.6-6.1-4.2s-5.1,2.3-5.1,2.3s-6.3-2.6-7.8-6s-14.1-0.7-21.4-1.4
	s-4-0.6-8-5s-7.9-5.5-11.4-5s-31.5,2.2-31.5,2.2s-5.4-0.4-6.2-3.6c-0.5-2.6-0.8-5.3-0.7-8c0,0-3.5-3.2-6.8-3.8
	c-2-0.3-3.7-1.4-4.9-2.9c-1.5-0.9-2.9-2-4.2-3.3c-1.7-1.9-2-4-8-5s-9.7,1-11.6,0.7c-1.8-0.1-3.6-0.8-5.1-1.9
	c-1.8-1.4,0.3-1.5-0.7-3.8s-4.6-0.8-9.2-1.5c-4.6-0.7-4.8,4.5-4.8,4.5l-5.2-1.4l-3-2.1c-3-2.1-2.6-1-6.5-1.6s-2,3.9-5.1,6
	s-1,2-3.2,3.2c-2.2,1.2-3.5-3.2-6.3-6.8c-2.8-3.6-7.7-2.8-15.3,2.8c-4.2,3.3-10.1,3.2-14.2-0.2c0,0-4.2-3.3-6.7-4.8s-3.6-2.7-9.2-2
	c-5.6,0.7-7.5,4.6-11.8,6c-4.3,1.4-4.9,0.8-8-0.8s-2.7-4.1-9-7.3c-6.3-3.2-9.2,2.2-11.1,1.9c-1.9-0.3-6-0.5-8.4-2.4
	s-8.1-8.2-12.8-8.4c-4.7-0.2-10.1,7.8-12.3,9c-2.2,1.2,0,0-6.4-2.1s-7.3-0.7-10.6-1.2c-3.3-0.5-5.3-0.9-7.7-2.8s-2.3-6.7-5.9-9.4
	s-3.7,2-4.6,3.5s-9.6,4.8-9.6,4.8s-3.6,5.2-4,7.8s-2.2,1.2-10.3,0.9s-10.1-0.6-12-1.4s-2.6-4.6-5.6-7.3s-12.4,1.1-12.4,1.1
	s-2,3.9-6.1,4.3s-7.5,4.6-7.5,4.6s-3.6-2.7-3.9-4.9s-11.3-1.3-14.3,0.3s-2.9,1.1-3.9-1.2s-3.6-6.9-7.7-7.1s-3.6,5.2-7.5,8.3
	s-5.4,3.9-7.3,3.5s-7,1.5-9.3,3.2s-5.8,2.2-6.2,4.8s-5.7,5.9-7.9,6.6s-10.5-6-11.9-5.6c0,0-1.7-6.1-5.5-7.8s-6-0.5-11.3,2.9
	s-1.7,6.1-5.1,6.5s-8.1-0.3-11.1,1.4s-4.6,3.5-12,2.8s-4-4.4-13.9-6s-12.5,5.9-12.5,5.9l-5-2c-5.1-1.9-6.7-0.6-8.3,0.8
	s-11.4,3.4-18.7,2.2s-6.9-3.2-11.4-5s-4.4,1.9-8.7,3.3s-4.8,0.3-9.7-2.6s-8.1,4-14.5,5.5s-6.7,3.6-14.8,3.4s-5.3-5.1-10-4.8
	s-15.8,1.1-15.8,1.1l-0.8-3.3l-10.1-0.6l-0.9-2.8c-0.9-2.8-5.2-5.6-7.8-6s-6.1,4.3-6.5,6.8c-0.4,2.5-0.6,3.6-5.9,7s-6.1,0-8.7-0.4
	c-2.6-0.4-5.4-4.6-14.7-5.6c-9.3-1-1.4,4.5-6.2,4.8c-4.8,0.3-3.9-4.9-5-2.4c-1.1,2.5-7.4,4-10.9,4.5s-1.5-3.4-3.5-7.4
	s-5.4,0.2-10.2,0.4c-4.8,0.2-9,9.6-9.4,11.6c-0.4,2-8-0.8-9.6-3.7c-1.6-2.9-6.4-2.1-9.6-3.2s-11.7,1.2-14.4,0.8
	c-2.7-0.4-3.2-1-4.3-2.8s-4.6-5-10.5-6c-5.9-1-7.9,6.6-10.9,4.5s-4.3-6.5-7.2-5.4s-5.6,9.6-6.2,13.2s-3.4,4.2-6.7,3.6
	s-5.4-4.1-8.6-5.1s-3.6-2.7-3.6-2.7c-1.6-2-3.3-3.9-5.2-5.6c-1.8-1.4-2.5,2.8-5.3,3.4s-2.5-1.5-2.9-3.1s-3.1-10-6.4-10.5
	S461,418,461,418s-3.7-6.4-6.3-6.8s-3.7,2-5.5,4.9c-1.8,2.9-1.3,3.5-9.4,3.7c-8.1,0.2-44.5,10-47.8,13.7c0,0,144,15.2,248.9,19.8
	c88.2,3.8,575.3,22.4,727.1,26.8V462C1366,461.6,1364.3,461.1,1362.7,460.5z"/>
<path class="st1" d="M820.2,416.2c-2.2-1.4-2.6-3.5-9.5-4.7c-2-0.4-4-0.3-6,0.2l-5.2,6.3l10.5-4.7l-18.7,11.5l23.2-8.5L820.2,416.2z
	"/>
<path class="st1" d="M1016.9,388.9c-0.9,1.4-9.6,4.8-9.6,4.8s-3.6,5.2-4,7.8c-0.4,2.3-1.8,1.5-7.8,1.1c2.5,2.2,5.3,3.8,6.8,1.5
	c3-4.5,12.9-8.6,14.8-11.7c1.1-1.8,1.7-3.9,1.8-6l2.5-1C1017.9,382.9,1017.8,387.5,1016.9,388.9z"/>
<path class="st1" d="M956.9,399.2c-4.1,0.4-7.5,4.6-7.5,4.6l12.3-2.7l11.3-7.3l-6.5,0.1c-2,0.5-3.5,1.1-3.5,1.1
	S961.1,398.8,956.9,399.2z"/>
<path class="st1" d="M864,404c-3.8-1.7-6-0.5-11.3,2.9s-1.7,6.1-5.1,6.5s-8.1-0.3-11.1,1.4c-1.2,0.7-2.2,1.4-3.4,1.9
	c0.7,0.5,2.7,0.8,8.1-0.3c9-1.8,11.2-4.7,11.5-6.5s10.2-5.8,10.2-5.8l-3,5l3.3-1.8l-1,3l3.5-3.5l-2.8-0.5l3.3-0.7
	C865.5,404.9,864.8,404.3,864,404z"/>
<path class="st1" d="M1085.7,402.9c-2-0.3-6-0.5-8.4-2.4s-8.1-8.2-12.8-8.4c-4.7-0.2-10.1,7.8-12.3,9c-2.2,1.2,0,0-6.4-2.1
	c-2.2-0.8-4.4-1.2-6.7-1.2l13.2,8l8.8-8.3l15.3,14.5l17-9.3h6.6c-0.9-0.7-1.9-1.2-2.9-1.7C1090.6,397.9,1087.7,403.2,1085.7,402.9z"
	/>
<path class="st1" d="M1127.8,402.9c-0.6,0-1.4,0.1-2.2,0.2c-2.1,0.3-4,1-5.7,2.3l-7.3,6.5l8.2-4.3l3.5-2.8l-2.3,4.2L1127.8,402.9z"
	/>
<path class="st1" d="M784.2,420l7.3-5c-3.9-1.1-5.3,0.1-6.7,1.3c-1.6,1.3-11.4,3.4-18.7,2.2s-6.9-3.2-11.4-5s-4.4,1.9-8.7,3.3
	s-4.8,0.3-9.7-2.6s-8.1,4-14.5,5.5s-6.7,3.6-14.8,3.4s-5.3-5.1-10-4.8c-2.6,0.1-7.1,0.5-10.6,0.7l5.6,4.8l37.5,4.2l3.3-10.8l-7,6.5
	l7.8-9.8l4,7.5l17.5-2.8l-7.3,6L784.2,420z"/>
<path class="st1" d="M1027,400.4l1.3-4.9c-0.3-0.2-0.6-0.4-0.8-0.6c-0.9-0.9-1.6-2-2-3.2l-7.1,7.1l6.3-3.6L1027,400.4z"/>
<path class="st1" d="M561.5,419.2c-2.2-0.7-6.7,0.1-10.3,0.6c2.5,1.8,5.4,3,8.4,3.4c3.9,0.2,7.9,0.2,11.8-0.3
	c-0.1-0.2-0.3-0.4-0.4-0.5C569.6,419.5,564.7,420.3,561.5,419.2z"/>
<path class="st1" d="M480,416.5l1.1,2.4l3.6-4.3c-0.3-0.2-0.5-0.5-0.8-0.7C482.4,412.8,481.7,415.2,480,416.5z"/>
<path class="st1" d="M395.7,433.9l7.5,0.8l39.2-11.2l9.3-6l9.3,5.7l8-17.7h2.8c-0.6-1-1.5-1.7-2.6-2c-3.3-0.5-8.5,14.4-8.5,14.4
	s-3.7-6.4-6.3-6.8s-3.7,2-5.5,4.9c-1.8,2.9-1.3,3.5-9.4,3.7c-6.8,0.2-33.3,7.1-43.7,11.5L395.7,433.9z"/>
<path class="st1" d="M659.2,418l-0.8-7.2l8.1,0.3l1.7-0.7c-1.7-1.9-4-3.2-6.4-3.8c-2.6-0.4-6.1,4.3-6.5,6.8c-0.4,2.5-0.6,3.6-5.9,7
	s-6.1,0-8.7-0.4c-2.4-0.4-4.9-3.9-12.4-5.2l17.5,9L659.2,418z"/>
<path class="st1" d="M514.2,410.4c-2.9,1.1-5.6,9.6-6.2,13.2s-3.4,4.2-6.7,3.6c-1.2-0.3-2.4-0.8-3.3-1.6c2.8,2.2,5.5,3.6,7.4,2.8
	c4.7-1.8,8.6-13,12-17C516.5,410.5,515.5,409.9,514.2,410.4z"/>
<path class="st1" d="M524.1,415.5c0.7,0.4,1.8,0.5,3.6,0c3.7-0.9,9.7-0.3,14.2,0.5c-2.6-2.6-6-4.2-9.6-4.7
	C528.2,410.6,526.1,414,524.1,415.5z"/>
<path class="st1" d="M912.2,399.2c-3.9,3-5.4,3.9-7.3,3.5s-7,1.5-9.3,3.2s-5.8,2.2-6.2,4.8s-5.5,5.8-7.7,6.6c3.6,2.2,7.5,2.7,10.9-1
	c9.5-10.2,16.3-12.3,16.3-12.3s9.3-6.2,9.8-9c0.3-1.6,2.5-2.4,4.7-2.5c-1-0.9-2.4-1.5-3.7-1.5C915.6,390.8,916.1,396.1,912.2,399.2z
	"/>
<path class="st1" d="M938.5,400c2.1-0.8,4.4-1.3,6.6-1.7c-1.6-1.2-8.1-0.9-11.9,0.1C935.2,399.7,937.1,400.6,938.5,400z"/>
<path class="st1" d="M584.7,424.5c5.3-5.3,11-9.3,12.3-8.7s4.3,9,4.3,9l15.2-6.7c-1.2-1.3-1.1-3-1.8-1.3c-1.1,2.5-7.4,4-10.9,4.5
	s-1.5-3.4-3.5-7.4s-5.4,0.2-10.2,0.4c-4.8,0.2-9,9.6-9.4,11.6c-0.1,0.9-1.6,0.9-3.3,0.4l-0.4,1.8C577,428.2,579.4,429.8,584.7,424.5
	z"/>
<path class="st2" d="M903.6,432c-56.5,2.5-158.3,17.8-192.6,23.2c5,0.2,10.3,0.4,15.7,0.6c43-6.5,127.5-18.6,177-20.8
	c48.2-2.1,241.3-1.7,351.6-1.3c-0.2-1-0.3-2-0.4-3C1144.5,430.3,951.8,429.9,903.6,432z"/>
<polygon class="st2" points="886.6,442.5 991.1,451.5 991.5,448.5 961.6,441.6 1029.9,444.3 1009.3,436.1 1008.1,438.9 
	1012.5,440.7 945.8,438 945.4,441 970.1,446.7 886.8,439.5 "/>
<path class="st2" d="M961.5,464.8c104.6-6.8,258.4-16.1,368.1-19.5c-4.7-0.3-12.1,0.8-17.1,0.3c-5.5-0.5-5-0.6-6.1-2.5
	c-118.6,4.3-277.1,14.2-374,20.6C942,464.1,951.7,464.4,961.5,464.8z"/>
<polygon class="st2" points="1020.7,453.8 1033.4,439.8 1113.6,437.5 1038,444.5 "/>
<polygon class="st2" points="736.7,445.2 741.4,427.8 908.7,422.5 750,435.2 "/>
</svg>
