<?xml version="1.0" encoding="utf-8"?>
<!-- Generator: Adobe Illustrator 21.0.2, SVG Export Plug-In . SVG Version: 6.00 Build 0)  -->
<svg version="1.1" id="Layer_1" xmlns="http://www.w3.org/2000/svg" xmlns:xlink="http://www.w3.org/1999/xlink" x="0px" y="0px"
	 viewBox="0 0 1366 768" style="enable-background:new 0 0 1366 768;" xml:space="preserve">
<style type="text/css">
	.st0{fill:#30145A;}
	.st1{fill:#45227C;}
	.st2{fill:#AB7A69;}
	.st3{fill:#471C66;}
	.st4{fill:#82504D;}
	.st5{fill:#AB8750;}
	.st6{fill:#808080;}
	.st7{fill:#37262F;}
	.st8{fill:#573C3B;}
	.st9{fill:#312222;}
	.st10{fill:#1B131E;}
	.st11{fill:#1E1917;}
	.st12{fill:#452B2A;}
	.st13{fill:#362E29;}
	.st14{fill:#2A2420;}
	.st15{fill:#694B4A;}
	.st16{fill:#301C1C;}
	.st17{fill:#4B3157;}
	.st18{fill:#201A12;}
	.st19{fill:#5D3A45;}
	.st20{fill:#4B2E3C;}
	.st21{fill:#765261;}
	.st22{fill:#1D1724;}
	.st23{fill:#8F615C;}
	.st24{fill:#BB718C;}
	.st25{fill:#724A4E;}
	.st26{fill:#5C3A45;}
	.st27{fill:#732134;}
	.st28{fill:#9A3F56;}
	.st29{fill:#19192D;}
	.st30{fill:#070B1E;}
	.st31{fill:#060A19;}
	.st32{fill:#9D7467;}
	.st33{fill:#B5927C;}
	.st34{fill:#332434;}
	.st35{fill:#1A1717;}
	.st36{fill:#B5A392;}
	.st37{fill:#714E44;}
	.st38{fill:#A57667;}
	.st39{fill:#17182D;}
	.st40{fill:#1C1E2F;}
	.st41{fill:#15122A;}
	.st42{fill:#E0B997;}
	.st43{fill:#2E1F29;}
	.st44{fill:#362338;}
	.st45{fill:#BF6C4E;}
	.st46{fill:#592F2F;}
	.st47{fill:#26162A;}
	.st48{fill:#E19C86;}
	.st49{fill:#2D1A31;}
	.st50{fill:#301D29;}
	.st51{fill:#603A3A;}
	.st52{fill:#7C5C32;}
</style>
<title>Layer 5</title>
<g>
	<g id="Ñëîé_9">
		<path class="st0" d="M1362.3,135.5c0.3-4.7,0.5-9.1,0.6-13c0.6,0,1.7,0.8,3.1,2.2V65c-9.7-3.3-20.1-6.8-24.9-8.3
			c-9.8-3.2-67.2,3.6-77.7,4.3s-76,30.1-76,30.1l-39,62.7c-3.2,5.1-2.8,11.7,1,16.5c7,8.7,17.5,21.7,18.9,24.1
			c2.2,3.7,26.7-3.7,26.7-3.7l24.8-5.1c0.3,2.1,0.7,4.3,1.1,6.5c-6.1,0.4-12.6,1.6-17.7,4.8c-7.3,4.7-22,20.4-29.5,28.8
			c-3,3.3-4.4,7.8-3.7,12.3l2.4,15.9c0,0,32.6,26.7,37.4,26.4s18.8-6.1,26.6-5.6c1.3,0.1,3.5,0.1,6.2,0c12.8,33,34.6,82.1,54,96.5
			c-0.7,10.5-2.2,87,0.3,109.7c2.6,23.8,7,111.6,7.8,115.5l34.9,2.1c-0.2-1-24.3-106.6-26.8-130.1s3-110.5,3.1-111.4v-0.4
			c5.7,2.6,11,4.5,11,4.5s20.2-0.4,24.6-6.5s4-26.3,0.4-36.6s2.7-32-0.5-35.6s-7.9-17.8-12-20.4s-9.1,8.3-10.8,11.3
			c-0.7,1.2-4,6-8.1,11.9c-0.9-11-2.2-25.1-3.1-39.5c3.1-5.2,9.2-15.5,15.8-26.1l5.4,1.9c0,0,13.4,12.6,19.5,17.9
			c1.6,1.4,4.4,2.2,7.8,2.7V136.6C1364.7,136.2,1363.6,135.8,1362.3,135.5z M1302.8,346.1c0.1,2,2.4,4.1,5.4,6.1
			c-0.3,1.5-0.5,2.9-0.8,4.1c-3.3-0.3-7.2-1.9-10.9-6.7c-14-17.9-32.9-51-45.6-75.5c13.7-0.8,31.4-2.4,33.3-3.8
			c2.8-2.1-1.6-24-2.2-32.6c-0.1-2.7,0.3-5.5,1.2-8.1c3.7,10.7,7.3,20.8,10.4,28c6.9,16.3,12.8,35.7,15.3,44
			c-2.4,3.3-4.4,6.1-5.7,7.9C1298,316.6,1302.4,339.4,1302.8,346.1L1302.8,346.1z M1312.5,213c-0.3,25-0.7,55.1-0.1,74.3
			c-3.7-10-9-23.9-14-35.7c-3.4-8-8.1-18.4-12.8-29.2c0.9-3.3,1.5-6.6,0.5-9.9c-1.1-3.6-4.4-7.1-8.7-10c-0.9-2.4-1.8-4.8-2.6-7.1
			c0.5,0.2,1,0.4,1.5,0.5c8.8,1.3,30.8,14.3,30.8,14.3l5.3,1.9L1312.5,213z M1316.9,232.8c-0.3-6.7-0.4-13.2-0.4-19.3l11.9,4.3
			C1323.2,224.6,1318.7,230.4,1316.9,232.8L1316.9,232.8z M1359.7,135c-15.7-3-37.3-1-43.2-0.6c-7.7,0.5-44.7,7.8-55.8,14.4
			s-4.4,20.5-4.4,20.5s7.3,16.4,14.8,23.4l2.4,7.4c-4.5-2.5-9.4-4.2-14.4-5c-9.7-1.3-14.7-3.8-22.4-3.3c-2.7,0.2-6.2,0.1-10.2,0.1
			c-0.5-3.2-1-6.4-1.5-9.4c6.3-7.3,24.5-28.6,28-35.1c4.3-8,34.4-18.7,43.6-25.1c8.3-5.8,52-0.6,63.8,0.3
			C1360.2,126.2,1360,130.5,1359.7,135z"/>
		<path class="st1" d="M1190.2,192.1l1.2-5.1l-16.7-8.7c0,0,9.3-29.3,10.7-32s54-56.7,54-56.7l99.8-33.4c-13.9-2-65.7,4-75.7,4.7
			c-10.5,0.7-76,30.1-76,30.1l-39,62.7c-3.2,5.1-2.8,11.7,1,16.5c7,8.7,17.5,21.7,18.9,24.1C1170,197,1182.9,194,1190.2,192.1z"/>
		<path class="st2" d="M1150.9,171.9L1176,116l2.7-10.8l-30.2,48.6c-3.2,5.1-2.8,11.7,1,16.5L1150.9,171.9z"/>
		<path class="st2" d="M1177.4,194.9l-17.3-11.5c4.1,5.2,7.6,9.7,8.4,11S1172.9,195.6,1177.4,194.9z"/>
		<path class="st3" d="M1366,532.8c-90.8-0.4-376.9-0.2-474,18.2c0,0-248.4,78.9-437.9,217H1366V532.8z"/>
		<path class="st4" d="M1366,535.9c-72.2,7.7-267.6,29.6-390.4,53.7C893,619.3,736.8,717.8,659.7,768H1366V535.9z"/>
		<path class="st5" d="M1028.5,695c-49.5,30-83.4,56.5-102.8,73h66.7c32.4-24.1,64-45.5,94.3-64.6L1028.5,695z"/>
		<path class="st5" d="M1326.6,567.3l15.1,12.2c8.8-3,16.9-5.6,24.3-7.9v-15.1C1352.6,560,1339.4,563.6,1326.6,567.3z"/>
		<path class="st5" d="M1217.6,603.6l34,11.5c27.1-12,51.6-21.8,72.9-29.5l-19.9-11.7C1273.7,583.3,1244.7,593.3,1217.6,603.6z"/>
		<path class="st5" d="M1194.1,612.9c-37.9,15.3-72,31.1-102.1,46.6l49.3,11.3c32.2-18.2,62.6-33.7,90.6-46.8L1194.1,612.9z"/>
		<polygon class="st6" points="1229.3,596 1270.7,605.7 1216,615 1101.7,598.4 1082.2,599.4 1114.6,612.1 1125.3,616.3 
			1062.5,610.7 1051.4,612.1 1063.3,616 1062,618.2 1221,659 1298,656 1366,673.8 1366,604.1 1246.1,595.6 		"/>
		<path class="st7" d="M1091.4,390.9c0.2-1.5,0.1-3-0.3-4.4c-0.7-1.1-1.8-1.8-3-2c-2.9-0.4-5.7,2.5-6.3,6.6c-0.2,1.5-0.1,3,0.3,4.4
			c0.7,1.1,1.8,1.8,3,2C1088.1,398,1090.9,395,1091.4,390.9z"/>
		<polygon class="st8" points="1238.6,404.8 1234.5,385.1 1183.6,369.6 1168.3,406.5 		"/>
		<path class="st9" d="M1152.1,415.6c-0.9-1.5-0.4-26.5-0.4-26.5l32.3-20l-14.7,38.3l-9,0.9L1152.1,415.6z"/>
		<path class="st8" d="M1125,430.9c0,0-10.4,6.1-14.4,5.7s-3.9-19.4-3.9-19.4l19.6-1.6l4.8-18.5l20.7-2.5l0.3,18.3L1125,430.9z"/>
		<path class="st10" d="M1226.5,374.4l-3,7.6l-39.7-12.9l-32.3,20l0.3,6l-17.6,1.5c0,0-21.3-21.7-20.1-25.3
			c2.7-8.1,34.8-14.4,35.7-13.6s25.4,2.7,36.6,4.1S1226.5,374.4,1226.5,374.4z"/>
		<path class="st11" d="M1274.7,405.6c0,0-1.2-20.2-8-25.9s-16-12.9-19.1-11.8s-12.5,1-17.2,2.2s-6.9,11.6-6.9,11.6l11.3,4.3l2,18.8
			L1274.7,405.6z"/>
		<path class="st12" d="M1115.9,435.4c6.7-5.8,22.6-19.5,26.6-22c5.1-3.2,7.3-17.5,7.3-17.5l1.9-0.5l0.3,17.5l-27.1,18
			C1122.1,432.6,1119,434.1,1115.9,435.4z"/>
		<path class="st13" d="M1230.5,370.1c4.6-1.2,14.1-1.1,17.2-2.2s12.3,6.1,19.1,11.8c0.5,0.4,1,0.9,1.4,1.5l-9.3,1.9l-9.7-11
			l-19.4-1.7C1230,370.3,1230.2,370.2,1230.5,370.1z"/>
		<path class="st14" d="M1268.1,381.2c5.6,7.1,6.6,24.5,6.6,24.5l-13.7-0.3l1.9-7.1l-4.1-15.2L1268.1,381.2z"/>
		<polygon class="st15" points="1231.2,390.6 1187.5,370.8 1234.5,385.1 1238.6,404.8 1232.6,404.9 		"/>
		<path class="st16" d="M1152.1,412.9l-0.4-0.6c-0.3-7.1,0-23.2,0-23.2l32.3-20l-29.5,21.7L1152.1,412.9z"/>
		<path class="st17" d="M1149.9,357.7c0.8,0.7,25.4,2.7,36.6,4.1c9.9,1.3,34.3,10.5,39.6,12.5l-1,2.5c0,0-27.7-9.6-38.7-11
			s-26.9-4.8-40.7-2.8s-31.5,8.3-31.5,8.3C1116.9,363.3,1149,357,1149.9,357.7z"/>
		<polygon class="st12" points="1106.7,417.2 1119.5,419.8 1126.2,415.6 		"/>
		<polygon class="st18" points="1266.7,405.4 1262.4,382 1245,369 1245.6,368.2 1263.4,381.4 1267.7,405.2 		"/>
		<path class="st19" d="M1288.9,407.6c8.3,5.7,28.2,89.5,35.1,113.7s10.3,52.7,10.3,52.7s-68,11.8-118.1,9.7s-98.1-5.2-98.1-5.2
			s33.8-165.3,41.7-171.7C1163.5,404,1281.1,402.2,1288.9,407.6z"/>
		<path class="st2" d="M1159.8,406.9c0,0-42,26.8-46,30s-16.8,54.2-16.8,54.2S1068,527,1067,528.6s0.2,38.8,1.7,39.7
			s7.8,3.8,7.8,3.8s-1.5-31.6,1.7-29.1s8.6,30.9,8.6,30.9l12.8,2.2c0,0,0.2-43.4,3.4-39.9s9.4,42.1,9.4,42.1l5.6,0.3
			C1118,578.5,1154.3,409.1,1159.8,406.9z"/>
		<path class="st20" d="M1286.5,412.7c0,0,22,69.2,20,71.8s-157.8,10.9-159.6,3.8s14.6-74.9,19.1-76.1S1283.3,407.7,1286.5,412.7z"
			/>
		<path class="st21" d="M1282.6,420c0,0-35.7,16.4-38.8,17.5s-6.9,40.5-6.9,40.5l60.3,1.8C1297.2,479.8,1285.2,421.5,1282.6,420z"/>
		<path class="st21" d="M1238.3,439.2c0,0-7.2,31.3-8.1,34.9l-0.9,3.6l-82.5,3.5c0,0,7-39.5,9.5-40.6S1233.7,437.8,1238.3,439.2z"/>
		<path class="st22" d="M1307.2,480.5c-7.2-1.3-73.8-2.6-82-2.4s-77,2.8-78.5,3.1s-1.5,9-1.5,9s33.8,5.1,80.2,2.4
			c10.2-0.6,83.5-4.8,83.3-5.6S1308.8,480.8,1307.2,480.5z"/>
		<path class="st10" d="M1270,449.7c-4.6-0.8-21.2,0.4-22.4,1.4s-7.7,23.2-8.2,25.3s0.3,2.3,0.3,2.3l43.5,0.8
			C1283.2,479.5,1275.1,450.6,1270,449.7z"/>
		<path class="st10" d="M1200.4,452.3c2.6,2.2,5.6,26.7,5.6,26.7l-48.8,1.9c0,0,7.3-27.3,10.4-28.1S1197.4,449.8,1200.4,452.3z"/>
		<path class="st2" d="M1265.3,522.6c0,0,1.1,18.3-5,19.8s-49.4,1.2-51,0.3s-2.1-18.6-2.1-18.6L1265.3,522.6z"/>
		<path class="st23" d="M1260.1,542.4c-6.1,1.3-43.1,1.2-49.8,0.4c-0.8-4.7-1.1-14.5-1.1-14.5l52.8-1.4
			C1262,527,1262.6,537.4,1260.1,542.4z"/>
		<path class="st24" d="M1128.1,561.3c0,0,32.2,0.2,66.3,2.6c30,2.1,116.7-5.2,137.3-7c1.7,10.1,2.5,17.1,2.5,17.1
			s-68,11.8-118.1,9.7c-35.7-1.5-70.3-3.5-87.3-4.5L1128.1,561.3z"/>
		<path d="M1228.4,584.2c-4.2,0-8.3-0.1-12.3-0.2c-35.5-1.5-69.9-3.5-87.3-4.5h-0.2l-0.8-18.4h0.3c0.3,0,32.6,0.2,66.3,2.6
			c30.3,2.1,119.7-5.4,137.3-7h0.2v0.2c1.7,10,2.5,17.1,2.5,17.2v0.2h-0.2C1333.7,574.4,1276.2,584.2,1228.4,584.2z M1129.1,579
			c17.4,1.1,51.7,3,87,4.5c48,2,113.3-8.9,117.8-9.7c-0.2-1.3-1-7.8-2.5-16.7c-18.2,1.6-107,9.1-137.1,6.9
			c-32.1-2.3-62.8-2.6-66-2.6L1129.1,579z"/>
		<path class="st25" d="M1216.2,583.7c-50.1-2.1-98.1-5.2-98.1-5.2s10-46.3,20.1-90.9c7.9,16.4,27.5,60.2,27.5,60.2l117.7,7.2
			l33.3-61.5c3,11.6,5.6,21.6,7.3,27.7c6.9,24.3,10.3,52.8,10.3,52.8S1266.2,585.8,1216.2,583.7z"/>
		<path class="st26" d="M1313.8,520.4c0,0,9.4,15,9.8,18.4s-4.3,17.4-9.4,16.8s-11.4-15.9-11.4-15.9S1309.8,518.1,1313.8,520.4z"/>
		<path class="st27" d="M1313.3,522.8c0,0,7.4,11.8,7.7,14.5s-3.4,13.7-7.4,13.2s-9-12.5-9-12.5S1310.2,521,1313.3,522.8z"/>
		<path class="st28" d="M1311.4,548.5c-0.2,0.1-0.4,0.2-0.6,0.2c-2.1-2.6-3.8-5.4-5.2-8.4l13.5-1.4
			C1319.1,538.9,1315,546.6,1311.4,548.5z"/>
		<path class="st26" d="M1141.9,524.3c0,0-9.1,16.6-9.2,20.2s5.7,18.2,11.1,17.2s11.1-17.7,11.1-17.7S1146,521.6,1141.9,524.3z"/>
		<path class="st27" d="M1141.1,528c0,0-6.7,12.3-6.8,14.9s4.2,13.5,8.2,12.8s8.2-13.1,8.2-13.1S1144.1,526,1141.1,528z"/>
		<path class="st28" d="M1144.6,553.5c0.2,0.1,0.4,0.1,0.7,0.2c1.9-2.7,3.5-5.6,4.6-8.7l-13.6-0.6
			C1136.3,544.4,1140.9,551.9,1144.6,553.5z"/>
		<path class="st29" d="M1342.5,560c0,0-1.5,16.9-5,20s-89.8,16.5-142,12s-66.1-8.2-66.1-8.2l-1.1-20.4c0,0,88.4,5,109.8,5.3
			S1342.5,560,1342.5,560z"/>
		<path class="st30" d="M1246.1,595.6c-5.5,1.2-11.2,1.3-16.8,0.4c-0.9-0.2-1-3.5-1-3.5l18.3-0.4
			C1246.6,592,1247,595.4,1246.1,595.6z"/>
		<path class="st31" d="M1328.9,582.4c0,0-0.8,25-3.3,26.1s-33.6,3.1-36.2,2.1s-5.2-21.3-5.2-21.3L1328.9,582.4z"/>
		<path class="st30" d="M1328.5,590c-0.4,7.5-1.3,17.8-2.9,18.5c-2.5,1.1-33.6,3.1-36.2,2.1c-1-0.4-2.1-3.8-3-7.9
			c-0.6-3.4-0.9-6-0.9-6L1328.5,590z"/>
		<path class="st30" d="M1103,536.2c0,0,2.5,66.8,5.8,72.3s37,3.3,38.4-0.3s2.3-21.4,2.3-21.4l-20-3l-0.5-4.6l-16.5-1
			C1112.4,578.2,1105.4,536.2,1103,536.2z"/>
		<path class="st30" d="M1078.6,544.4c-1.7-1.6,0.5,54.7,3.6,55s18.8,2.4,19.5-1c1-5.3-1-44.7-1-44.7l-1.1,22.3l-12.8-2.2
			C1086.8,573.8,1080.2,545.9,1078.6,544.4z"/>
		<path class="st32" d="M1145.3,420.7c0,0-10.3,65-11.4,66.9s-29.6,8.9-33.5,5.6s12.5-54.3,16.3-56.4S1145.3,419.6,1145.3,420.7z"/>
		<path class="st33" d="M1068,565c-1.1-9.3-1.8-35.1-1-36.4c1-1.6,29.9-37.5,29.9-37.5s11.3-44.8,16-53.1l-12.9,53.7
			c0,0-21.7,29.4-28,37.2C1067.4,534.7,1067.6,554.9,1068,565z"/>
		<path class="st34" d="M1138.7,458.3c0,0-10.2,0-12.2,1.6s-9.7,32.7-9.7,32.7s15.2-2.3,17.2-5S1138.7,458.3,1138.7,458.3z"/>
		<path class="st35" d="M1173.1,427.7c8.3,2.6,66,45.6,87.9,62.1c-12.8,0.7-27.3,1.4-41.4,1.9l-0.2-0.1
			c-10.4-5.3-61.3-36.9-61.3-36.9L1173.1,427.7z"/>
		<path class="st35" d="M1225.1,414.2c9.8,2.3,62.2,66.5,62.2,66.5s-6.3,6.8-6.9,6.8c-1-1.2-2.2-2.4-3.7-4
			c-7.9-7.9-81.2-69.5-81.2-69.5S1222.6,413.6,1225.1,414.2z"/>
		<path class="st22" d="M1119.1,483.5c0,0-14.9,1.8-16.1,1.8s-3,6.7-2.8,7.5s6.3,1.5,11.4,0.9s5.1-1.1,5.1-1.1L1119.1,483.5z"/>
		<path class="st20" d="M1145.3,420.7l-3,18.6l-29.4,4.6c0,0,2.3-6.1,3.8-7.1C1119.4,435.2,1145.3,420.7,1145.3,420.7z"/>
		<path class="st36" d="M1108.3,467.6c-1.7,4.7-5.8,17.9-8.2,25.2c-2.8-5.7,12.9-54,16.6-56c0.6-0.2,1.1-0.5,1.7-0.9
			C1113.8,447.9,1110.3,461.8,1108.3,467.6z"/>
		<path class="st37" d="M1079.9,486.2c-0.9,3.1-1.3,6.4-1.2,9.6c0.2,5.4,7.5,7.4,10.2,7s5.7-2.9,5.7-2.9l3.8,0.6l0.3-3.8
			L1079.9,486.2z"/>
		<path class="st38" d="M1098.6,496.7l-0.1,0.9l-3.7-0.6c0,0-3,2.4-5.7,2.9s-10-1.6-10.2-7c0-1,0-2,0.1-3c0.2-1.2,0.5-2.4,0.8-3.6
			L1098.6,496.7z"/>
		<polygon class="st39" points="1071.7,554.2 1071.3,567.6 1066,568.5 1066.4,556.6 		"/>
		<path class="st35" d="M1145.3,420.7l-38.9,73.3c0,0,10.6-0.8,12.3-2.1c2.3-1.6,24.4-58.9,24.4-58.9L1145.3,420.7z"/>
		<polygon class="st35" points="1131.2,428.8 1109.2,465.4 1103.8,481.5 1136.2,436.5 1145.3,420.7 		"/>
		<path class="st40" d="M1128.4,563.5c3.4,0.2,88.7,5,109.7,5.3c21.4,0.4,104.3-8.8,104.3-8.8s0,0.4-0.1,1.1
			c-3.5,2.5-7.6,4.2-11.9,4.8c-8.3,0.9-79.1,6.4-102.5,6.9s-97.9-7.3-97.9-7.3L1128.4,563.5z"/>
		<path class="st41" d="M1195.5,592c-52.2-4.5-66.1-8.2-66.1-8.2l-1.1-20.4l2.4,0.1c0.8,7.3,2.4,17.9,4.8,18.5
			c3.7,0.9,76.8,7.3,90.1,7.3s100.2-9.7,105.3-11c3.6-1,8.5-11.5,11.1-18.3l0.5,0c0,0-1.5,16.9-5,20S1247.7,596.6,1195.5,592z"/>
		<path class="st36" d="M1157.2,412.6c0,0-15.2,45.2-18.8,65.1c-1.3,7.1-12.1,57.7-14.4,67.3s-5.9,33.3-5.9,33.3L1157.2,412.6z"/>
		<path class="st36" d="M1078.7,495.8c-0.1-3.2,0.3-6.5,1.2-9.6l16.4,9.2c-5-2.5-13.8-6.8-15-6.4c-1.7,0.5-1.6,7.1,0.3,9.3
			s9.7,3.3,10.3,2.9s3.1-1.7,3.1-1.7l1,0.6l-1.6-0.3c0,0-3,2.4-5.7,2.9S1078.8,501.2,1078.7,495.8z"/>
		<path class="st36" d="M1123.7,517.1c-3.8,1.5-7.8,2.9-11.7,4.2s-7.9,2.5-11.8,3.7s-7.9,2.2-12,3.2s-8,2-12.1,2.7
			c3.8-1.5,7.8-2.9,11.7-4.2s7.9-2.5,11.8-3.7s7.9-2.2,12-3.2S1119.6,517.9,1123.7,517.1z"/>
		<path class="st29" d="M1112,610.4c-1.3-0.3-2.5-1-3.3-2c-3.2-5.5-5.8-72.3-5.8-72.3s2.9,9.8,5.6,20.7c2.1,10.6,3.9,21.4,3.9,21.4
			C1113.3,589.3,1113.8,602.7,1112,610.4z"/>
		<path class="st29" d="M1084,599.5c-2.8-0.2-0.8,0-1.8-0.1c-3.1-0.3-5.3-56.6-3.6-55c0,0,0.1,0.1,0.1,0.1c0.7,2,1.9,5.6,3.2,9.8
			c2.3,8.6,4.9,19.5,4.9,19.5C1087.9,582,1085.8,593.1,1084,599.5z"/>
		<path class="st36" d="M1106.8,565.4c0.6,3.2,1.1,6.5,1.4,9.8c0.3,3.3,0.4,6.6,0.4,9.9c-0.6-3.2-1.1-6.5-1.4-9.8
			C1106.8,572,1106.7,568.7,1106.8,565.4z"/>
		<path class="st36" d="M1080.2,563.7c0.4,1.7,0.6,3.5,0.7,5.3c0.1,1.8,0,3.6-0.3,5.4c-0.4-1.7-0.6-3.5-0.7-5.3
			C1079.8,567.2,1079.9,565.5,1080.2,563.7z"/>
		
			<rect x="1088.7" y="398" transform="matrix(0.3029 -0.953 0.953 0.3029 407.2247 1353.7963)" class="st18" width="80.6" height="1"/>
		
			<rect x="1165.2" y="354.3" transform="matrix(0.6485 -0.7612 0.7612 0.6485 130.7227 1016.1762)" class="st18" width="1" height="24.5"/>
		
			<rect x="1191.6" y="368.2" transform="matrix(0.8278 -0.5611 0.5611 0.8278 -0.6188 735.3143)" class="st18" width="11.7" height="1"/>
		
			<rect x="1210.2" y="374.3" transform="matrix(0.9215 -0.3885 0.3885 0.9215 -56.3675 500.9516)" class="st18" width="1" height="31"/>
		<path class="st7" d="M1119.8,443.9l-1,6.2l0.9,0.3c0,0,0.6-2.2,0.8-2.7c0.2-0.5,0.4-0.9,0.7-1.4l-0.9,4.9c0.3,0.1,0.7,0.2,1.1,0.3
			c0.2,0,2.4-0.7,2.4-0.7l3.6-12l-3.5-1.7L1119.8,443.9z"/>
		<path class="st42" d="M1118.8,450.2l0.2,0l0.8-3.9c0.5-0.3,1-0.8,1.2-1.4c0.1-0.2,0.5-0.1,0.9-0.8c1.3-1.8-0.4-2.2-0.4-2.2
			l-0.8,0.5l-0.9,1.5L1118.8,450.2z"/>
		<path class="st7" d="M1124.7,437l-4.8,4c0,1.6-0.4,3.1-1.4,4.4c-0.5,0.7-1.1,1.3-1.7,1.8c0.5,0.3,1.1,0.4,1.7,0.2
			c0.8-0.4,2.1-2.6,2.1-2.6c0.9,0,2.6-1.8,2.7-3.1s2.3-4,2.3-4L1124.7,437z"/>
		<path class="st42" d="M1123.6,437.9l-3.8,3.1c0,1.6-0.4,3.1-1.4,4.4c-0.5,0.7-1.1,1.3-1.7,1.8c0.5,0.3,1.1,0.4,1.7,0.2
			c0.1-0.1,0.2-0.1,0.3-0.2c-0.4,0.1-0.9,0.1-1.4,0c0.8-0.8,2.6-3,2.8-4.3c0.1-0.6,0.2-1.2,0.2-1.8l3.2-2.5L1123.6,437.9z"/>
		<path class="st42" d="M1121.5,451.5l0.3-0.1l0.7-3.1l0.7-1.5l-0.8,1.6L1121.5,451.5z"/>
		<path class="st42" d="M1121.2,446.3l-0.9,4.9l0.2,0.1l0.6-3.5l0.9-2.5L1121.2,446.3z"/>
		<polygon class="st43" points="1123.8,437.1 1124.7,440.1 1123.2,441.6 1122.8,444.2 1124.4,446.4 1123.1,450.9 1123.8,450.8 
			1127.4,438.8 		"/>
		<polygon class="st44" points="1144.3,421.2 1130.6,443.7 1123.4,437.2 1127.7,419.2 		"/>
		<path class="st7" d="M1062.5,405.4c0,0-3.3-11.7-3.3-13.4s2.9-3.7,3.1-5.5c0-1.3-0.4-2.6-1.1-3.7c0,0,2.5-6,2.9-6.6
			s-4.9-2.3-3-3.6s11.2-3.1,15.3-0.9s9.9,3.5,12,8.9c3.2,8.2-7,25.9-7,25.9L1062.5,405.4z"/>
		<path class="st43" d="M1087.6,384.7c0,0-2.5-7.8-7.1-6.2s-9.1-4.4-15,14c0,0,2.5,9.6,7.6,8.4c3.1-0.7,3.7-1.4,3.6-1.9l4.3,7.6h0.4
			c0,0,1.1-1.9,2.4-4.7l1.4-4.3c0,0,0.3-0.2,0.7-0.5c1.3-3.2,2.3-6.5,2.8-9.9C1088.4,386.3,1088,385.5,1087.6,384.7z"/>
		<path class="st45" d="M1075.9,368.3c3.7-1.1,7.6,0.2,9.9,3.3c1.5,2.1,2.8,9.8,2.8,9.8s-1.3-3.2-3-4.5c-1-0.8-2.1-1.5-3.2-2.1
			c0,0,0.2-6-3.2-4.2c-2.1,1.1-5.1,10.2-5.1,10.2l-6,0.2C1068.1,380.8,1071.2,369.7,1075.9,368.3z"/>
		<path class="st42" d="M1070.3,377.1l-6.3-0.9c-0.4,0.6-2.9,6.6-2.9,6.6c0.2,0.4,0.4,0.7,0.6,1.1l-0.1-1.5l4-5.3L1070.3,377.1z"/>
		<path class="st42" d="M1061.8,402.9c-0.3-3.4-1-10.1-1.2-11.1c-0.2-1.2,1.3-4.3,1.3-4.3v-0.2c-0.8,1.5-2.8,3.2-2.8,4.6
			C1059.2,393.2,1060.8,399.4,1061.8,402.9z"/>
		<path class="st46" d="M1085.8,371.5c-0.7-0.9-1.5-1.7-2.5-2.3c-1.6-0.6-4.5-1.5-6.8-0.8c-4,1.1-7.1,9.5-7.9,12.1l5.3,0.1
			c0,0,3.1-9.1,5.1-10.2c0.7-0.6,1.8-0.4,2.3,0.3c0,0.1,0.1,0.1,0.1,0.2c2.5-0.3,2.3,4.5,2.3,4.5c1.1,0.6,2.1,1.4,3.2,2.1
			c0.3,0.3,0.6,0.6,0.9,0.9C1087.6,376,1086.7,372.8,1085.8,371.5z"/>
		<ellipse transform="matrix(0.14 -0.9901 0.9901 0.14 535.6285 1390.2614)" class="st45" cx="1068.2" cy="386.8" rx="8.3" ry="6"/>
		<path class="st46" d="M1077.2,388.7c0.3-1.8,0.1-3.7-0.5-5.4c-0.9-1.3-2.3-2.2-3.8-2.5c-3.7-0.5-7.3,3.1-8,8.1
			c-0.3,1.8-0.1,3.7,0.5,5.4c0.9,1.3,2.3,2.2,3.8,2.5C1072.9,397.3,1076.5,393.7,1077.2,388.7z"/>
		<path class="st7" d="M1085.8,371.8c-0.5-0.7-3.4-3.7-5.8-2.3c-0.5,0.3-1,0.8-1.2,1.3c0.1-0.1,0.2-0.2,0.4-0.3
			c3.3-1.7,3.2,4.7,3.2,4.7c1.1,0.7,2.1,1.5,3.2,2.4c1.8,1.5,3,5.1,3,5.1S1087.7,374.9,1085.8,371.8z"/>
		<path class="st44" d="M1102.1,438l42.2-16.8l-1.6-8l-7.4-3l-40.9,7.6l-0.5-0.4l1-4.3c0,0,2.4-1.9,0.7-3.3s-15.8-5.2-15.8-5.2
			l0.1-0.3h-17.4l0.2,0.4l-10.7,7.5l2.4,6.2c-2.9,1.8-5.9,3.4-9,4.8c-3.8,1.4-5.7,12.9-5.7,12.9l3.3,3.8c0,0-2.4,12.4-4.8,15.2
			s-4.8,16.6-4.8,16.6l10.5,22.4l-3.8,4.8c0,0,5.2,5.2,5.2,9s6.2,20,6.2,20l1,20.9c0,0,3.2,16.1,2.7,22.3s5.4,28.7,6.3,31.5
			s-2.4,15.7,0.5,15.7s10.9-0.5,10.9-0.5l-2.8-14.3l-0.5-26.6c0,0-1.4-10,1-12.8c1.6-1.9,3.7-14.7,4.8-22.6c-0.1-0.5-0.3-1-0.4-1.5
			c-1.2-7.3,2.8-14.3,6-20.5c4.3-8.4,8.9-16.7,13.1-25.1v-0.1l1.6-35C1095.8,459.2,1099.7,447.5,1102.1,438z"/>
		<path class="st44" d="M1057.7,542.8l-4,64.3l0.4,0.5c0,0-3.6,0.5-2.7,4.5h11.7l7.7-61.6L1057.7,542.8z"/>
		<path class="st47" d="M1098.9,435.5c0,0-17.6,16.2-22.9,23.6s-12.2,23.3-12.2,23.3l3.7,4.7
			C1067.5,487.1,1084.7,443.6,1098.9,435.5z"/>
		<path class="st47" d="M1101.6,433.5l-8.8,16.2l-31.7,42.5c0,0,4,16.5,11.5,15.5s21.6-13.5,21.6-13.5l1.6-35c0,0,4-11.7,6.4-21.2
			l35.3-14.1l5.3-2.6L1101.6,433.5z"/>
		<path class="st47" d="M1066.5,573.3l-5.2-1.3l6.8,4.3l-0.4,29.8l-5.3,3.2l0.2,1.6l6.6-2l-5.4,0.5l6.9-3l-0.6-2.8l-0.5-26.6
			c0,0-1.4-9.8,0.9-12.8l-0.4-49.6l9.8-8.1l-11.7,6.4L1066.5,573.3z"/>
		<path class="st47" d="M1082.7,427.7l-17.6,41.5c0,0,15.5-31,20.9-31.7C1082.3,436.1,1082.7,427.7,1082.7,427.7z"/>
		<path class="st47" d="M1085.4,420c0,0,5.7,5.4,54.3-0.7c-29.4,5.1-49.3,8.8-55.7,4.4s4.4-6.8,4.4-6.8L1085.4,420z"/>
		<polygon class="st47" points="1068.7,413.3 1094.8,411.8 1075.2,415.3 		"/>
		<polygon class="st47" points="1075.2,418.9 1094.4,414.7 1086.7,418.3 		"/>
		<path class="st42" d="M1068.8,371.5c0,0-5.5,0.3-5.5,1.5v1.1l5.5,1.6c0,0-8.2-0.2-8.2-2.5S1068.8,371.5,1068.8,371.5z"/>
		<path class="st42" d="M1071.3,373.1c0,0-6-2.5-4-3s5.7,1.7,5.7,1.7s-2.8-1-3.4-0.8S1071.3,373.1,1071.3,373.1z"/>
		<path class="st47" d="M1049.3,487.1l4-6.8l-3-13.5l2.4-28.7l-6.1,30.7l2.7,13.5l-5.9,10.3l0.6,1.4l-3.8,4.8
			c0.9,0.9,1.7,1.9,2.5,2.9l8-5.5l-4.4-3.4l10.5,4L1049.3,487.1z"/>
		<polygon class="st48" points="1052,412.2 1054.4,418.4 1055.1,412.2 1062.7,404.7 		"/>
		<polygon class="st49" points="1056.3,418.9 1075.3,422.1 1092.7,418.1 1078.5,424.9 		"/>
		<path class="st50" d="M1079.9,404.3h-1.6l-1,0.4l-6.2,0.1l12.1,2.1l12.4,2.9c-1.7-1.4-15.8-5.2-15.8-5.2L1079.9,404.3z"/>
		<path class="st49" d="M1094.8,413.2c0,0-5.3-0.7-7.2-0.7s-4.5,2.4-6.3,1.3c-1.3-0.7-2.8-1.2-4.2-1.6c0,0,4.5,2.8,5.5,3
			s3.6-1.8,4.9-1.8S1094.8,413.2,1094.8,413.2z"/>
		<path class="st48" d="M1043,439.8c0,0-2.4,12.4-4.8,15.2c-1.8,2.2-3.7,11.1-4.4,14.9c1.2-4.5,5.4-14.4,5.4-14.4s4.2-7.3,4.7-11.4
			S1043,439.8,1043,439.8z"/>
		<path class="st48" d="M1039.7,436l2.3-0.2v-8.1C1040.9,430.4,1040.2,433.2,1039.7,436z"/>
		<path class="st48" d="M1045.4,423.2c-0.5,0.2-0.9,0.5-1.2,0.9l2.7-1.5C1046.3,422.8,1045.8,423,1045.4,423.2z"/>
		<path class="st48" d="M1046,511.3c1.6,6.1,5.6,16.6,5.6,16.6l1.4-9L1046,511.3z"/>
		<path class="st48" d="M1062.3,609.1l1.7-0.8l-6.3-36.2c0,0-2.4-17.2-3.4-25.6c-0.5-3.7-1.3-7.4-2.4-10.9l0.6,13.2
			c0,0,3.2,16.1,2.7,22.3s5.4,28.7,6.3,31.5c0.2,1.3,0.2,2.7,0,4.1L1062.3,609.1z"/>
		<polygon class="st48" points="1061.9,405.8 1077.8,405 1062.5,404.3 		"/>
		<path class="st2" d="M1190,214.3l15.3-18l3.6-2.1c-2,0.6-3.9,1.5-5.7,2.6c-7.3,4.7-22,20.4-29.5,28.8c-3,3.3-4.4,7.8-3.7,12.3
			l2.4,15.9l4.2-24.1L1190,214.3z"/>
		<path class="st2" d="M1289,357c-10-6-46.4-82.4-46.4-82.4c12.8,33,34.6,82.1,54,96.5C1296.7,371.1,1299,363,1289,357z"/>
		<path class="st51" d="M1366,768v-75c-157.5-21.7-487.2-65.5-576-64c-19.5,0.3-582.1,50.5-790,69v70H1366z"/>
		<path class="st52" d="M1227.3,672.3c-33.7-3.5-91.8-2.4-163.7,1.8l36.2,16.3c88.9-7.8,159.9-11.2,196.2-7.4L1227.3,672.3z"/>
		<path class="st52" d="M662.2,710c-223.2,24.1-427.4,50.6-444.3,53l0.7,4.9h244c71.8-10.1,154.1-21.3,238.8-32.3L662.2,710z"/>
		<path class="st52" d="M797.9,723.4c69-8.5,137.5-16.5,201-23.2l-51.3-17.8c-57.2,4.7-118.5,10.4-180.4,16.7L797.9,723.4z"/>
	</g>
</g>
</svg>
