<?xml version="1.0" encoding="utf-8"?>
<!-- Generator: Adobe Illustrator 21.0.2, SVG Export Plug-In . SVG Version: 6.00 Build 0)  -->
<svg version="1.1" id="Ñëîé_3" xmlns="http://www.w3.org/2000/svg" xmlns:xlink="http://www.w3.org/1999/xlink" x="0px" y="0px"
	 viewBox="0 0 1366 768" style="enable-background:new 0 0 1366 768;" xml:space="preserve">
<style type="text/css">
	.st0{fill:#9188BF;}
</style>
<title>Layer 1</title>
<path class="st0" d="M1269,362c-36,0-100.9-9.9-124.9-14.4s-40.5,7.5-52.5,7.5s-49.5-12-69-12s-69,22.5-78,22.5s-73.5-12-94.5-10.5
	s-108,7.5-135,12s-148.5,9-148.5,9S483,373,459,371.5s-98.5,16.5-137.5,15s-98,14-131,11s-80.4,9.1-99.9,9.1S0,404.7,0,404.7V768
	h1057.2l308.8-0.9V366.8C1355,366,1301.2,362,1269,362z"/>
</svg>
