<?xml version="1.0" encoding="utf-8"?>
<!-- Generator: Adobe Illustrator 21.0.2, SVG Export Plug-In . SVG Version: 6.00 Build 0)  -->
<svg version="1.1" id="Ñëîé_4" xmlns="http://www.w3.org/2000/svg" xmlns:xlink="http://www.w3.org/1999/xlink" x="0px" y="0px"
	 viewBox="0 0 1366 768" style="enable-background:new 0 0 1366 768;" xml:space="preserve">
<style type="text/css">
	.st0{fill:#6638AF;}
	.st1{fill:#F7931E;}
</style>
<title>Layer 2</title>
<polygon class="st0" points="793.9,210.7 788.2,210.8 788.7,256.3 "/>
<polygon class="st0" points="814,211.2 808.7,211.4 813.7,253.7 "/>
<polygon class="st0" points="793.9,210.7 788.2,210.8 788.7,256.3 "/>
<polygon class="st0" points="814,211.2 808.7,211.4 813.7,253.7 "/>
<path class="st0" d="M1233.3,358.2c0,0.1,0.1,0.1,0.2,0.1C1233.5,358.2,1233.2,358,1233.3,358.2z"/>
<path class="st0" d="M1299.7,372c0-1.2,1.9-2.6,1.9-3.3s0.5-1.4,0.3-2.1s-1-1.3-1.3-2.4c-0.1-0.8-0.4-1.5-0.9-2.2
	c-0.6-0.9-0.9-1.9-1.4-1.9s-1.3,1.3-1.8,1.7c-0.5,0.3-0.8,0.7-1,1.3c-0.1,0.5-1.4,1.8-1.5,1.1c-0.1-0.5-0.1-1,0-1.5
	c0.1-1.1,2.9-0.8-0.3-1.5s-2.8-1.2-3-1.6s-0.5-1-0.8-1.4s0-0.8-1-1.3s-2-0.3-2.5-0.7s-1.3-1.7-1.9-0.8s-1.9,1.2-1.9,1.7
	s1.1,0.9-0.3,1.5s-2,0.4-2.4,0.8s-1.2,1.5-1.2,1.5l-0.6,1c0,0-1.9-0.4-1.9,0.4s-0.1,1.6,1,2.1s1.6,2.3,1.6,2.3s0.6,1,1.3,1.2
	s1-0.1,1,0.6s1.9,0.5,1.9,1c-0.1,0.5,0,1.1,0.3,1.6c0.2,0.3-0.3,1-0.6,1.4h-3.2c-0.7-0.8-1.5-1.4-2.5-1.9c-1.4-0.5-0.9-0.6-1.5-1
	c-1.2-0.4-2.4-0.7-3.6-0.8c-1.3-0.3-0.1-1.2-2-1.1s-1.9,0.3-2.6,1.6s2.6,1.6-1.4,1.6s-4.4,0.2-4.4-0.5s0.1-1.4,0.4-2
	c0.4-0.8,0.6-1.5,1.6-1.9c0.7-0.3,1.3-0.9,1.6-1.6c0.4-0.7,0.4-1.2,2.6-1.6s4.4-0.5,4.1-1.4s1.5-2.5,1.5-2.5s1.8-1.4,1.8-2.4
	s2.1-2.5,1.1-2.7s-2.1-0.2-2.6-0.9s0.1-1.1-0.8-1.7c-0.9-0.5-1.8-1.1-2.6-1.9c-1.6-1.4-2-2.9-3.6-3.1c-1.2-0.1-2.4,0-3.5,0.3
	c-0.4,0,0.5,0.5,0.5,0.8s-0.4,1-2,0.8s-3.4,0.2-3.6,0.5s0.3,0.4-0.6,0.9s-0.9,0.5-2.4,0.5s-2.5-0.3-2.5,0.1s0.3,0.8,0.6,1.1
	c0.4,0.3,1.4,0.1,1.4,1s-0.6,1.1-0.6,1.1s0.6,0.8-0.6,1c-1.1,0.2-2.1,0.6-3.1,1.2c0.5,0.4,1.2,0.8,1.9,0.9c1.1,0.3,2-0.1,1.9,0.6
	c0,0.4-0.2,0.9-0.5,1.2c-0.4,0.4-0.5,0.3,0,1s1.4,0,1.4,0.8s0.1,1.3,1.1,1.5s1.9-0.3,2,0.7s0.6,0.8,0.6,1.8s-0.8,1.1-0.9,1.5
	s1,0.4,0.5,0.8c-0.5,0.3-1,0.5-1.6,0.5c-0.7,0.4-1.4,0.8-2,1.3c-0.3,0.3,1.1,0.9,0.1,1.2s-1.8-0.3-2.5,0.5s-0.9,0.6-0.6,1.4
	c0.1,0.4,0.3,0.8,0.3,1.1h-4.3l0.1-2.6l1.6-0.2c-0.3-0.2-0.6-0.6-0.8-0.9c-0.1-0.4-1-0.8,0.6-0.8c0.9,0,1.8-0.3,2.4-1
	c0,0-0.5-0.9,0.6-1.1s1.6,0.3,1.6-0.6s-0.4-0.5,0.5-1.3s0.8-1.4-0.1-1.6s-1.9-0.3-1.9-0.3l-0.3-1.9c-0.1-0.4-0.5-0.7-1-0.7
	c-0.9,0-3.5,0-3-1.1s1-0.9,0-1.2s0-1-1.3-1.5c-0.7-0.4-1.5-0.6-2.3-0.8c-0.6,0.1-1.2,0.4-1.6,0.9c-0.5,0.4-1.3,0-1.6,0.8
	s0.5,0.8-0.6,1.3s-1.9,0.8-1.9,1.2s1.1,0.7,0.8,1.3c-0.4,0.5-0.6,1.2-0.5,1.9c0.1,1,1.4,0.7,1.1,1.5s-0.8,1.7,0,2s1.4-0.4,1.8,0.8
	s1.4,1.4,1.9,1.8s1.5,0.2,1.6,0.8s1.1,0.8,1.1,0.8l-0.1,2.4h-4.3c-0.1-0.2-0.1-0.4,0.1-0.5l0,0c0.3-0.2,0.4-0.7,0.1-1
	c-0.1-0.1-0.2-0.2-0.3-0.2c-0.5-0.2-1-0.4-1.4-0.8c-0.6-0.5-0.3-1.3-0.6-1.7s-1.3-0.7-1.3-1.2s0.4-0.9,0.4-1.3
	c0.1-0.5,0-1.1-0.3-1.6c-0.4-0.4-0.7-0.9-0.9-1.5c-0.3-0.8,0.1-0.7,0.1-1.5s0.4-1.1-0.3-1.3s-0.5-1-0.8-1.4c-0.4-0.4-1-0.7-1.6-0.8
	c-0.8,0.1-1.6,0.1-2.4,0c0,0.2-0.2,0.3-1.2,0.1c-2.1-0.4-0.1-1.9-0.9-2.8c-0.4-0.5-1-0.8-1.6-0.8l0.3-0.8l-1-0.1l-0.4-3.5l-1-0.1
	l-0.1,1.5h-1.8l0.3-1.4l-1.5,0.3v1.3c-0.4,0.1-0.7,0.2-1,0.4c-0.3,0.3-0.6,0.6-0.8,1c-0.2,0.3-0.5,0.6-0.9,0.7
	c-0.3,0.1-0.5,0.3-0.6,0.5h-3l-0.1,1.6l2.3,0.1l-0.1,1l-0.9,0.3h-10.3V357l-5.8,0.2v2.9h-1.4l0.3,4.7l-4.1,0.1l0.1-4.5h-1.3
	l-0.1,1.5h-1l0.1-1.7h-2.8l-0.7-3.4l-1.7-0.1l-0.7,0.8l-7.8,0.1v-0.8h-1.3v-2.1h-1.7l-0.3-15l1.3-0.2v-2.7l-3.8-0.3l-8.3-3.9
	l-6.5,3.7l-38.8,0.2l-0.7,1.9l-2.3,0.5l-0.5,4l-4,0.1l-0.5,4.5l-12.8,0.2l-1.5,8.5l-6,0.3l-0.3,1.5l-4.3,0.2l-1.3,0.3l-4.1,2.8
	l-3.8,3.2v1.4c0,0-3.8-0.7-4.8-2.2s-3.5-1.2-4.3-0.5c-0.7,0.9-1.2,1.9-1.5,3l-2-1.4c0,0,1.8-2.9-0.3-3s-2.8,0.3-3-0.2s0.8-3.4,0.5-4
	s-1-2.5-1.8-2.5s-2.5-1.5-3-1s-2.3,2.9-2.3,2.9c-0.7,0.6-1.4,1-2.3,1.4c-0.8,0.2,1.3,1.5-0.3,2s-1.5,0.3-3.5,0.5s-3.3,0.8-3.5,1.5
	s1,1.7-1,2s-3,0-4.5,0.2s-2-1-3,1s0.3,2.9-1.5,3.7c-1.4,0.7-1.4,0.4-2.8,0.6l-0.1-2.2h0.1l-0.5-5.3l-14-0.9l0.2-16.9l-6.1-0.2
	l0.2,4.1l-8.1-0.5l0.2-10.8l-6.7-0.2l-0.1-14.1H994l-0.8-29.6l-13.4-0.1l0.3,26.1h-3.2v-9.6l-5.1-0.1l-0.4,9.6l-9.3-0.3l-0.3-6.3
	l-2.1,0.1l-0.1-1.9c0,0-4.2,0.2-5.3-0.5s-0.3-9.5-0.3-9.5l5.7,0.1l-0.1-2.2c0,0-5.4-0.1-5.8-0.6s-0.1-6.9-0.1-6.9l6.1,0.1l-0.2-1.7
	c0,0-4,0.2-5.8-0.7s-1.6-5.8-1.6-5.8l-2.1-0.1l-0.3-1.5l-5.1-0.1l-0.1-1.3l-7.7-0.1l0.2,1.4l-4.9-0.1v1.6l-2.9,0.1
	c-0.3,0-0.9,5-2.2,5.9s-5.3,0.6-5.3,0.6v1.5h5.8c0.3,2.3,0.4,4.6,0.3,6.9c-0.3,1.6-5.8,0.4-5.8,0.4l-0.5,1.3l2.5,0.1l-11.7-0.3
	L911,269l-3.9,0.3l-0.7-11.9h-6.7v10.9l-6.3-0.3l0.3,17.8l-10.2-0.3l-0.7,23.4l-0.3-7.3l-6.1-5.3l-1.6,1.6v-4
	c-0.6-0.1-1.2-0.1-1.8,0l-0.4,6l-1.7,1l-0.3-16.7l-6.5-0.4l-0.5-7.7l-28-0.6l0.3,7l-7.5,0.7l1.1,27.4l-10.6,0.7l-14.2-118.4
	l-3.1-36.3l-2.8,0.7c0,0-1.4,20.1-2.5,25.4s-16.2,139-16.2,139l-1.6-0.3v-8.7l2.6-0.1v-1l-2.6-0.3l-0.2-15.5l1.1-0.1l-0.1-4.1
	l-1.3-0.2c0,0-0.2-6.2-2.2-8s-6.4-2.3-6.4-2.3s-0.1-3.9-0.7-5.3s-1.5-1.1-1.5-1.1l0.2-9.2l-2.2-0.1c0,0,0.4,9.2-0.3,9.4
	c-0.6,0.2-1.2,0.7-1.5,1.3c-0.2,1.7-0.3,3.4-0.2,5.2c0,0-1.3,0-5.2,1.6c-3.6,1.6-3,9-3,9h-1.5l1.1,49.6h-5.7l-0.9-15.8l-9.4-0.4
	l0.5,16.7h-12.8l-0.5-20.2L698,321v45.3l-16-0.4l0.5-39.6l-15.1-0.4l-0.9,40.4c-2,1-3-0.3-6.5,1.7c-5,2.9-9,8.7-12,9.7
	s-9,2.9-12,2.9s-17-2.9-21-1c-6.2,3.3-13,4.9-20,4.8c-10,0-8-3.9-19-1.9s-5,1.9-16,5.8s4,1-15,3.9s-21,0-26,4.8s-8-5.8-18-1.9
	s-14,8.7-20,8.7s-11-1-16-1s-11,2.9-12,4.8s-29-11.6-38-5.8s-18,9.7-33,8.7s-32-3.9-41-3.9s-14,1-22,1s-19,1-33,1.9s-37-12.6-45-8.7
	s-46,12.6-51,12.6s-22,3.9-35,1.9s-67-3.9-94-1.9s-59,0-59,0L1.9,428L0,651.8V768h1057.2l308.8-0.9V371.8l-66.5,0.6
	C1299.6,372.3,1299.7,372.2,1299.7,372z M941.9,319.6L941.9,319.6z M955.5,319.8l-0.2-6.9h1.8l0.1,7L955.5,319.8z"/>
<polygon class="st1" points="698,366.3 698,321 727.2,321.9 701,324 "/>
<polygon class="st1" points="727.6,342.1 740.3,342.1 739.9,325.4 749.3,325.8 741.5,327 741,344.2 "/>
<path class="st1" d="M764.6,276.1c-0.2,1.7-0.3,3.4-0.2,5.2c0,0-1.3,0-5.2,1.6c-3.6,1.6-3,9-3,9h-1.5l1.1,49.6l-0.5-48.9l2.5,0.4
	c0,0,0.1-5.3,1.5-8.3s5.9-2.4,5.9-2.4s0.1-2.9,0-4.6c-0.1-0.9,0.5-1.7,1.4-1.9h0.1l0.3-9.3l1.7-1.2l-2.2-0.1c0,0,0.4,9.2-0.3,9.4
	C765.5,275.1,764.9,275.5,764.6,276.1z"/>
<polygon class="st1" points="725,408.5 724.5,345.5 729,364 "/>
<polygon class="st1" points="705.5,395 706,329.5 709.5,329.5 "/>
<polygon class="st1" points="713.7,341.3 713.3,394 717.3,416.3 "/>
<polygon class="st1" points="715,330 716,338 717.7,338 718.3,328.7 "/>
<polygon class="st1" points="803,156.6 800.1,157.3 781.4,321.6 "/>
<polygon class="st1" points="830.8,310.7 829.7,283.3 837.2,282.6 837,275.6 865,276.2 843.5,281 847,286.5 832,284.5 "/>
<polygon class="st1" points="849.5,309.5 848.5,289.5 864.5,289 852.5,291.5 "/>
<polygon class="st1" points="861.5,314.5 877.8,296.4 872,308 "/>
<polygon class="st1" points="895.1,285.9 894.7,268.1 901.1,268.4 "/>
<polygon class="st1" points="907.8,257.5 901.1,257.5 901.3,265.3 903.3,259.3 "/>
<polygon class="st1" points="822.5,406 823,335.5 853,336.5 828,338.5 "/>
<polygon class="st1" points="849,398.5 847.5,345 868.5,343.5 868,326 886.5,325.5 872,329.5 871,352 852.5,355.5 "/>
<polygon class="st1" points="870.5,359.5 871.5,403.5 874,376.5 "/>
<polygon class="st1" points="948,335 941,377 952,377 951.5,389 955.5,374.5 944,374 "/>
</svg>
