<?xml version="1.0" encoding="utf-8"?>
<!-- Generator: Adobe Illustrator 21.0.2, SVG Export Plug-In . SVG Version: 6.00 Build 0)  -->
<svg version="1.1" id="Layer_1" xmlns="http://www.w3.org/2000/svg" xmlns:xlink="http://www.w3.org/1999/xlink" x="0px" y="0px"
	 viewBox="0 0 1366 768" style="enable-background:new 0 0 1366 768;" xml:space="preserve">
<style type="text/css">
	.st0{fill:#332070;}
	.st1{fill:url(#SVGID_1_);}
	.st2{fill:#180A3A;}
	.st3{fill:#30145A;}
	.st4{fill:#2E1360;}
	.st5{fill:#44328E;}
	.st6{fill:#54259E;}
	.st7{fill:#D82930;}
	.st8{fill:#422084;}
	.st9{fill:#A31022;}
	.st10{fill:#AB1624;}
	.st11{fill:#846640;}
	.st12{fill:#B3B3B3;}
</style>
<title>Layer 3</title>
<polygon class="st0" points="1366,768 1366,480.8 609.7,439.5 0,413.4 0,768 "/>
<linearGradient id="SVGID_1_" gradientUnits="userSpaceOnUse" x1="862.0985" y1="298.3882" x2="421.0986" y2="639.3881" gradientTransform="matrix(1 0 0 -1 0 1032.24)">
	<stop  offset="0" style="stop-color:#FFFFFF"/>
	<stop  offset="1" style="stop-color:#999999"/>
</linearGradient>
<polygon class="st1" points="672.3,503.5 661.3,503.9 654.7,504.5 667.8,506.8 665.5,508.3 754,534 416.9,768 1237.7,768 1093,534 
	"/>
<path class="st2" d="M522.5,443c0,0,76,7.5,79.5,4.5s15.5-2.5,15.5-2.5l8.5,3.5l23-3.5l63.2-0.9l-4.2,3.4l18,1.5l-13.5,6.5l107-5
	L757,457l165-6.5l-64,7.5l47-1l-10,4l122.3-7.3l-62.7,10l-107.3,2.7l30-3.3l-144.7,8l65.3-8l-92.7-2l-0.6-4l-15-1l26.3-4.3h-15.8
	l9.8-1l-39.5,5L687,451l-53,5l15.3-3.8l-13.3,0.5l8.8-4.8l-18.5,5.8l-2.8-4l-9,0.5l8.1-1.6l-5.9-2.5l-4.1,2.8l-0.6-2.6l-1.6,3.1
	l-1.9-3l-11.1,5.8l13.5-1.9l-7,2.3L594,453l0.5-1.6l-20.9-0.8l13.4-0.4l-77.5-4.4l18.5,0.5l-44.5-4.1l43.6,2.8L522.5,443z"/>
<path class="st3" d="M938,524.9c0,0-9.1-9.6-10-9.8c-0.9-0.1-1.8-0.3-2.7-0.5c-1.5-0.5-6.8-11.6-7.8-11.6s-15.3,5.2-16.2,4.7
	s0.3-29.2-0.1-29.5s-4.1-0.1-4.7,0s0.3,13.2-0.1,13.6s-36.1,0.1-36.5-0.2s0.1-3.1-0.4-3.6s-24.8,0-25.8,0s-0.5,3.3-0.5,3.3
	s-2.3,0.5-2.8,0.5s0,13.6,0,13.6l-2.5,0.1l-1.6-32.5c0,0-4.2-4.8-5.5-5s-5.2,4.8-5.2,4.8l-1.8,33l-3.1,0.1c-1.9,0-14.5,7.5-14.5,7.5
	H792c-1.4,0-0.5,2.3-1.4,2.8S769,528.4,769,528.4s36.6,0.9,39.1,1.6s-8.2,4.7-10.3,6.1s69.6,0.9,70.1,0s-9.4-9.8-10.1-11.5
	S938,524.9,938,524.9z M826.4,500.8l-1.5-2.3l1.3,0.1C826.3,499.8,826.4,500.7,826.4,500.8z M826.2,497.6h-1.9l-2.9-4.6l1-1.5h3.3
	C825.9,493.5,826.1,495.8,826.2,497.6z M820.9,493.8l2.3,3.7l-4.6-0.1L820.9,493.8z M820.5,491.4h0.8l-0.4,0.6L820.5,491.4z
	 M825.7,490.4H823l2.2-3.4C825.4,487.9,825.5,489.1,825.7,490.4L825.7,490.4z M824.8,485.6c0,0,0.1,0,0.1,0.1l-3,4.8h-2l-3-4.9
	C817.3,484.9,824,485.6,824.8,485.6L824.8,485.6z M816.8,487.3l2,3.2h-2.3C816.5,489.3,816.7,488.2,816.8,487.3L816.8,487.3z
	 M816.3,491.5h3l0.9,1.5l-2.9,4.4h-1.6C816,495.4,816.2,493.3,816.3,491.5L816.3,491.5z M815.7,498.2h1.1l-1.3,1.9L815.7,498.2z
	 M815.4,502.1l2.5-3.8l5.8,0.2l2.6,4.1v2.9l-10.8,0.3C815.4,504.5,815.4,503.3,815.4,502.1L815.4,502.1z"/>
<rect x="26" y="310.2" transform="matrix(0.9999 -1.378780e-02 1.378780e-02 0.9999 -6.5184 0.4103)" class="st4" width="1" height="325.5"/>
<rect x="68.1" y="292.2" transform="matrix(0.9999 -1.343889e-02 1.343889e-02 0.9999 -6.1783 0.9635)" class="st4" width="1" height="336"/>
<rect x="106.3" y="269.7" transform="matrix(0.9997 -2.634894e-02 2.634894e-02 0.9997 -11.557 2.967)" class="st4" width="1" height="340.6"/>
<rect x="231.5" y="233.7" transform="matrix(0.9998 -2.163891e-02 2.163891e-02 0.9998 -8.753 5.1157)" class="st4" width="1" height="346.6"/>
<rect x="278.1" y="345" transform="matrix(1 -5.759364e-03 5.759364e-03 1 -2.6125 1.6121)" class="st4" width="1" height="218.8"/>
<rect x="319.4" y="378.4" transform="matrix(0.9999 -1.483446e-02 1.483446e-02 0.9999 -6.8755 4.7969)" class="st4" width="1" height="174.9"/>
<rect x="361.1" y="413" transform="matrix(1 -3.490609e-03 3.490609e-03 1 -1.6607 1.2651)" class="st4" width="1" height="126.8"/>
<rect x="403" y="443" transform="matrix(1 -5.061303e-03 5.061303e-03 1 -2.4554 2.0485)" class="st4" width="1" height="86.3"/>
<rect x="417.6" y="491.3" transform="matrix(7.853364e-03 -1 1 7.853364e-03 -50.755 932.4438)" class="st4" width="53.8" height="1"/>
<rect x="485.2" y="482.3" transform="matrix(0.9997 -2.634894e-02 2.634894e-02 0.9997 -12.8734 12.9701)" class="st2" width="1" height="25.3"/>
<rect x="520.2" y="483" class="st2" width="1" height="14"/>
<rect x="549.5" y="478.3" class="st2" width="1" height="12"/>
<rect x="575.5" y="471" class="st2" width="1" height="12"/>
<path class="st5" d="M105.3,449.5c0,0,186,0.5,194,0.5s9.5,3,9.5,3s-121,5.5-126.5,6s15.5,6,21,6c2.9-0.1,5.7,0.3,8.5,1
	c0,0-8.5,2.5-4.5,2.5s71,2,78,3s18.5,3,18.5,3l-73,2c0,0,66,8,85,8h29.5l-4.5,2c0,0-68.5-2.5-65.5-1s36.5,6.5,36.5,6.5s-45,0.5-45,4
	s62,6.5,62,6.5s-52,2-72,2s-73.5,4-95.5,4s-66-5.5-63-5.5s111.5-2.5,118.5-2.5s-35.5-3-78-6.5s-61,0-61,0s30.2-3.8,33.8-4.2
	s-22.8-2-22.8-2s10.7-1.8,12.7-1.8s21-3.3,13.7-3.3s-62.8-3.2-62.8-3.2s69.2-2.3,71.3-2.3s-66-2.8-66-2.8s56-5,58.2-5.8
	s-39.3-2-42.5-2.7s38.2-1.7,40.3-1.7s-20.5-3.5-0.5-4.2s41.8,0,40.8-2S105.3,449.5,105.3,449.5z"/>
<rect x="598.2" y="461.7" class="st2" width="1" height="15"/>
<rect x="614.5" y="451.4" transform="matrix(0.9995 -3.175937e-02 3.175937e-02 0.9995 -14.3372 19.7648)" class="st2" width="1" height="19.6"/>
<rect x="630.5" y="437.3" transform="matrix(0.9989 -4.641117e-02 4.641117e-02 0.9989 -20.2812 29.7715)" class="st2" width="1" height="28.7"/>
<rect x="645.1" y="419.3" transform="matrix(0.998 -6.279387e-02 6.279387e-02 0.998 -26.3858 41.408)" class="st2" width="1" height="42.4"/>
<path class="st2" d="M506.6,485.4c-3.4,0-6.9-0.1-10.4-0.2c-42.6-1.5-114.1-46.7-212.4-134.4c-73-65.2-134.4-130.8-135-131.4
	l2.9-2.7c0.6,0.6,61.9,66.1,134.8,131.2c96.2,85.9,168.8,132,209.9,133.4c60.4,2.1,107-14.3,134.8-47.3c21-24.9,24.1-50.9,24.1-51.1
	l4,0.4c-0.1,1.1-3.2,27.2-24.9,53.1c-12.7,15.2-29.2,27-49.1,35.2C563.1,480.8,536.7,485.4,506.6,485.4z"/>
<polygon class="st6" points="712.2,444.1 0,653.9 0,682.4 716.8,446.8 "/>
<path class="st2" d="M709.7,443.8c0,0-549.7,152.6-709.7,196.7v14.8l712.2-211.2L709.7,443.8z"/>
<polygon class="st7" points="0,648.3 0,655.3 245,582 "/>
<path class="st3" d="M190,208l0.2,5.3l-34,8.3l-0.4-5.4l-9,0.3L157,768h14.4c-0.4-27.8-3.4-239.8-1.8-239.8s18.8-0.3,20.5,0.3
	c1.5,0.5,3.9,183,4.6,239.6h13.7l-8.4-561L190,208z M184.5,491.9l-10.4,0.2c-3.9,0-7.1-3.3-7.1-7.2l-0.9-56.2
	c-0.2-3.9,2.9-7.3,6.8-7.4l10.4-0.2c3.9,0,7.1,3.3,7.1,7.2l0.9,56.2C191.5,488.3,188.5,491.7,184.5,491.9
	C184.6,491.9,184.6,491.9,184.5,491.9L184.5,491.9z M186,385.4l-14.8,1.2c-3.7,0.2-6.9-2.7-7.1-6.4c0-0.1,0-0.3,0-0.4l-0.7-42.5
	c-0.1-3.4,2.3-6.4,5.8-7l14.8-2c3.7-0.4,7,2.3,7.4,6c0,0.3,0,0.5,0,0.8l0.7,43.3C192.2,382,189.6,385,186,385.4z M190.3,295.8
	l-27.3,6.3c-2,0.4-3.9-0.9-4.2-2.8c0-0.2-0.1-0.5-0.1-0.8l-0.8-52.1c-0.1-1.8,1.2-3.4,2.9-3.7l27.1-5.3c2-0.3,3.8,1,4.2,3
	c0,0.2,0.1,0.4,0,0.6l1,51.1C193.1,293.8,192,295.4,190.3,295.8L190.3,295.8z"/>
<polygon class="st2" points="217,385.1 215.4,383.3 214.1,294.2 211.2,292.4 210.1,210.5 200,207.1 208.5,768 225,768 217.3,492.6 
	"/>
<polygon class="st2" points="141.2,219.9 142.5,298.4 138.5,302.8 141.5,387 138.8,389.5 140.4,490.8 146.4,768 157,768 
	146.9,216.5 "/>
<path class="st3" d="M665.3,380.1v1.2l-8.1,1.9l-0.1-1.2H655l2.3,123.2l4-1.3c0,0-1.3-52.6-0.9-52.6s4.5-0.1,4.9,0.1
	s0.2,56.9,0.2,56.9l4.2,0.9l-2-129.3L665.3,380.1z M665.6,441.6c0,0.9-0.7,1.6-1.6,1.7h-2.5c-0.9,0-1.7-0.7-1.7-1.6l-0.2-12.5
	c0-0.9,0.7-1.6,1.6-1.7h2.5c0.9,0,1.7,0.7,1.7,1.6L665.6,441.6z M665.8,418c0,0.8-0.6,1.5-1.5,1.6l-3.5,0.3
	c-0.9,0.1-1.6-0.6-1.7-1.4v-0.1l-0.2-9.5c0-0.8,0.6-1.5,1.4-1.6l3.5-0.5c0.9-0.1,1.7,0.5,1.8,1.3c0,0.1,0,0.1,0,0.2L665.8,418z
	 M665.4,399.6l-6.5,1.4c-0.5,0.1-0.9-0.2-1-0.7v-0.1l-0.2-11.6c0-0.4,0.3-0.8,0.7-0.8l6.5-1.2c0.5-0.1,0.9,0.2,1,0.7v0.1l0.2,11.4
	C666.1,399.2,665.8,399.5,665.4,399.6L665.4,399.6z"/>
<polygon class="st2" points="667.7,379.8 670.2,380.6 670.4,398.8 671.1,399.2 671.8,443.4 673.7,508.3 669.7,509.2 "/>
<polygon class="st2" points="655,382 653.7,382.7 653.9,400.2 653,401.1 654,419.8 653,420.5 653.4,443 654.7,504.5 657.3,505.2 "/>
<path class="st2" d="M144.1,223.8l-2.6-3.9C128.3,262.5,56.4,296.6,0,317.4v5.2c9.2-3.3,18.8-6.9,28.5-10.8
	C95.6,284.4,134.5,254.8,144.1,223.8z"/>
<path class="st7" d="M705.3,453.1c0,0-586.7,190.9-705.3,228.7V701l710.8-246.2L705.3,453.1z"/>
<path class="st2" d="M710.4,451.8C637.1,475.9,89.1,656,0,684.5V701l710.8-246.2L710.4,451.8z"/>
<polygon class="st8" points="141.9,612.9 170.6,604.9 191,619.4 139.5,636.4 "/>
<path class="st2" d="M546.9,489.5c-24.4,0-55.4-12.5-92.5-37.4c-33.3-22.3-71.7-54.6-114-96c-72-70.4-129.9-140.6-130.4-141.3
	l-0.2-4.2c0.6,0.7,61.6,72.4,133.4,142.6c94.7,92.6,168.1,138,212.4,131.6c56-8.2,83.5-35.1,96.7-56.2c14.3-22.8,16.3-43.8,16.3-44
	l1.3-4l0.8,3.7c0.1,0.7,15.3,63.3,34.7,73l0.2,1.7c-16.1-8-31.2-43.1-35.5-62.8c-2.8,12.3-7.6,24-14.2,34.6
	c-13.6,21.8-42,49.6-99.5,58C553.2,489.2,550.1,489.4,546.9,489.5z"/>
<polygon class="st2" points="2.3,699.6 0,589.2 0,643.7 1.1,699.9 "/>
<rect x="37.6" y="333.2" transform="matrix(0.9999 -1.291550e-02 1.291550e-02 0.9999 -6.5804 0.5346)" class="st2" width="1" height="353.1"/>
<polygon class="st2" points="81.1,672.6 77.7,316.2 78.7,316.2 81.9,672.1 "/>
<polygon class="st2" points="125.6,656.3 118.2,293 119.2,293 126.8,656 "/>
<rect x="250.1" y="314.3" transform="matrix(0.9998 -1.780290e-02 1.780290e-02 0.9998 -8.1911 4.5345)" class="st2" width="1" height="296.1"/>
<rect x="289.1" y="297.2" transform="matrix(0.9999 -1.064723e-02 1.064723e-02 0.9999 -4.7517 3.1087)" class="st2" width="1" height="301.3"/>
<rect x="332.3" y="340.6" transform="matrix(0.9998 -1.850049e-02 1.850049e-02 0.9998 -8.4891 6.2359)" class="st2" width="1" height="242.7"/>
<rect x="372.9" y="381.8" transform="matrix(0.9999 -1.605542e-02 1.605542e-02 0.9999 -7.5961 6.0566)" class="st2" width="1" height="188.6"/>
<rect x="413.6" y="417.4" transform="matrix(0.9999 -1.221762e-02 1.221762e-02 0.9999 -5.914 5.0955)" class="st2" width="1" height="138.4"/>
<rect x="456.2" y="450.2" transform="matrix(0.9999 -1.169418e-02 1.169418e-02 0.9999 -5.7742 5.3745)" class="st2" width="1" height="92.5"/>
<rect x="494.1" y="472.8" transform="matrix(1 -5.061303e-03 5.061303e-03 1 -2.5292 2.5098)" class="st2" width="1" height="56.3"/>
<rect x="529.3" y="485.2" class="st2" width="1" height="31.3"/>
<rect x="550.8" y="494.7" transform="matrix(2.722533e-02 -0.9996 0.9996 2.722533e-02 50.1871 1041.9979)" class="st2" width="19.3" height="1"/>
<rect x="583.5" y="479.4" transform="matrix(0.9999 -1.622983e-02 1.622983e-02 0.9999 -7.8581 9.5429)" class="st2" width="1" height="19"/>
<rect x="606.3" y="469.9" transform="matrix(1 -9.074841e-03 9.074841e-03 1 -4.3275 5.5266)" class="st2" width="1" height="19.4"/>
<rect x="622.2" y="460.9" transform="matrix(0.9999 -1.622983e-02 1.622983e-02 0.9999 -7.5925 10.1689)" class="st2" width="1" height="23.9"/>
<polygon class="st2" points="638.9,479.6 638.7,446.3 639.5,445.6 639.9,479.6 "/>
<polygon class="st2" points="650.8,474.4 650.7,431.7 651.4,430.3 651.8,474.4 "/>
<rect x="663.8" y="407.1" class="st2" width="1" height="62.9"/>
<polygon class="st2" points="679.1,465.6 678.2,414.8 678.8,416.6 680.1,465.5 "/>
<path class="st9" d="M158.7,298.5l-0.8-52.1c-0.1-1.8,1.2-3.4,2.9-3.7l0.5-0.1c-1.7-0.6-4.9-1.4-6.6,0.8c-2.3,3-1,55-0.3,58.7
	c0.3,1.5,3.1,1,6.3-0.3C159.4,301.1,158.7,299.8,158.7,298.5z"/>
<polygon class="st7" points="217,385.1 215.4,383.3 214.1,294.2 211.2,292.4 210.1,210.5 206.1,209.1 217.3,651.7 221,768 225,768 
	217.3,492.6 "/>
<path class="st7" d="M173.9,492c-3.7-0.1-7.1-2.4-7.2-6.4l-2.3-55c-0.1-3.3,3.8-8.1,6.6-9.1c-3.7-0.7-10-0.4-11.2,2.4
	c-1.8,4,0.3,59.7,2.3,66.3C162.8,493,167.9,493.2,173.9,492z"/>
<path class="st7" d="M169.1,386.4c-3-0.9-5-3.6-5-6.7l-0.7-42.5c-0.1-3.4,2.3-6.4,5.8-7h0.1c-3.1-0.6-8.8,0.5-11.2,2
	c-4,2.5-1.5,50-0.5,53.8C158,388,163.8,387.4,169.1,386.4z"/>
<rect x="161.3" y="258.3" transform="matrix(1 -8.900355e-03 8.900355e-03 1 -4.0047 1.458)" class="st2" width="1" height="384.7"/>
<path class="st10" d="M171,421.6c2.6-0.2,5.3-0.4,7.9-0.4c2.6-0.1,5.3,0,7.9,0.4c0.7,0.1,1.4,0.4,1.9,0.8c0.3,0.6,0.5,1.3,0.6,2
	c0.2,1.3,0.4,2.6,0.5,3.9c0.3,2.6,0.4,5.3,0.6,7.9c0.3,5.3,0.5,10.5,0.6,15.8s0.2,10.5,0.2,15.8l-0.6-15.8
	c-0.2-5.3-0.4-10.5-0.7-15.8c-0.1-2.6-0.3-5.3-0.6-7.9c-0.1-1.3-0.3-2.6-0.5-3.9c-0.1-0.6-0.2-1.2-0.5-1.8c-0.5-0.4-1.1-0.6-1.7-0.7
	c-2.6-0.4-5.2-0.6-7.8-0.5C176.2,421.4,173.6,421.5,171,421.6z"/>
<path class="st7" d="M170,330c4.6-1,9.4-1.4,14.1-1.4c1.2,0,2.4,0.2,3.6,0.5c0.6,0.2,1.2,0.4,1.7,0.8c0.3,0.2,0.5,0.4,0.6,0.7
	c0.1,0.3,0.3,0.6,0.4,0.9c0.6,2.3,1.1,4.6,1.2,7c0.4,4.7,0.5,9.5,0.5,14.2s-0.1,9.5-0.3,14.2c0-4.7,0-9.5-0.1-14.2
	s-0.2-9.5-0.6-14.2c-0.1-2.3-0.5-4.7-1.1-6.9c-0.1-0.5-0.4-1-0.9-1.4c-0.5-0.3-1-0.6-1.5-0.7c-1.1-0.3-2.3-0.5-3.5-0.5
	c-2.4-0.1-4.7,0-7.1,0.2C174.7,329.3,172.3,329.6,170,330z"/>
<path class="st7" d="M162.8,242.3c6.3-1.8,12.8-3.3,19.3-4.4c1.6-0.3,3.3-0.4,4.9-0.5c0.8,0,1.7,0,2.5,0.1c0.4,0.1,0.9,0.2,1.2,0.4
	c0.2,0.1,0.4,0.3,0.5,0.6c0.1,0.2,0.2,0.4,0.2,0.6c0.4,1.6,0.7,3.3,0.8,4.9c0.2,1.6,0.3,3.3,0.4,4.9c0.4,6.6,0.5,13.2,0.6,19.8
	l0.1,9.9l-0.1,9.9l-0.3-19.8c-0.1-6.6-0.3-13.2-0.8-19.8c-0.1-1.6-0.2-3.3-0.4-4.9c-0.1-1.6-0.4-3.3-0.8-4.8
	c-0.1-0.4-0.3-0.8-0.5-0.9c-0.3-0.2-0.7-0.3-1.1-0.4c-0.8-0.1-1.6-0.2-2.4-0.1c-1.6,0.1-3.3,0.2-4.9,0.5c-3.3,0.5-6.5,1.1-9.7,1.8
	S165.9,241.4,162.8,242.3z"/>
<path class="st7" d="M190.1,528.4c-3.4,0.1-6.9,0.2-10.3,0.3c-1.7,0-3.4,0.1-5.1,0.1l-5.1,0.1l0.7-0.7c0.2,6.4,0.4,12.8,0.5,19.2
	l0.2,9.6l0.1,9.6c0,6.4,0,12.8,0,19.2c-0.1,6.4-0.2,12.8-0.4,19.2c-0.4-6.4-0.7-12.8-0.9-19.2s-0.4-12.8-0.5-19.2l-0.2-9.6l-0.1-9.6
	c0-6.4,0-12.8,0-19.2v-0.7h0.7l5.1,0.2c1.7,0.1,3.4,0.1,5.1,0.2C183.3,528.1,186.7,528.2,190.1,528.4z"/>
<polygon class="st7" points="297.3,567 558.7,488.3 275.5,571 "/>
<polygon class="st2" points="206.1,610.7 206.5,629.8 216.7,626.9 216.2,608.4 "/>
<polygon class="st3" points="192.6,612.2 192.9,634.2 206.4,629.7 206.2,610.9 "/>
<path class="st7" d="M664.8,386.6c-1.6,0.3-3.3,0.5-4.9,0.8l-1.2,0.3c-0.4,0.1-0.7,0.2-1,0.4c0,0.1,0,0.3,0,0.5s0,0.4,0,0.6
	c0,0.4,0,0.8,0,1.2c0,3.3,0.2,6.6,0.2,9.9c-0.2-1.6-0.3-3.3-0.4-4.9s-0.2-3.3-0.2-5c0-0.4,0-0.8,0-1.2c0-0.2,0-0.4,0-0.6
	c0-0.3,0.1-0.5,0.2-0.7c0.4-0.3,0.8-0.4,1.3-0.5c0.4-0.1,0.8-0.2,1.2-0.2C661.5,386.7,663.2,386.6,664.8,386.6z"/>
<path class="st7" d="M662.6,407c-0.5,0-1,0.1-1.5,0.2s-1,0.2-1.4,0.4c-0.1,0-0.2,0.1-0.3,0.2s-0.1,0.1-0.1,0.2
	c0,0.2-0.1,0.5-0.1,0.7c0,0.5,0,1,0,1.5c0,2,0,4.1-0.2,6.1c-0.1-1-0.2-2-0.3-3.1s-0.1-2-0.1-3.1c0-0.5,0-1,0.1-1.5
	c0-0.3,0.1-0.5,0.1-0.8c0-0.2,0.1-0.3,0.3-0.4c0.1-0.1,0.2-0.2,0.4-0.2C660.5,406.9,661.6,406.9,662.6,407z"/>
<path class="st7" d="M663.3,427.5c-0.7,0.1-1.4,0.1-2.1,0.3c-0.3,0.1-0.7,0.2-1,0.3c-0.2,0.1-0.2,0.2-0.3,0.3c0,0.2,0,0.3,0,0.5
	c0,1.4,0,2.8,0,4.3c0,2.9,0,5.7-0.2,8.6c-0.1-1.4-0.2-2.9-0.3-4.3s-0.1-2.9-0.1-4.3s0-2.9,0.1-4.3c0-0.2,0-0.4,0.1-0.6
	s0.2-0.4,0.5-0.5s0.7-0.2,1.1-0.3C661.9,427.5,662.6,427.5,663.3,427.5z"/>
<polygon class="st3" points="665.6,466 665.6,470.5 669.1,469.3 669,464.9 "/>
<polygon class="st2" points="672.4,463.8 672.5,468.1 669.1,469.3 669,464.9 "/>
<polygon class="st7" points="668.5,381.5 670.8,508.3 670.3,508.3 "/>
<path class="st7" d="M210.1,210.5c6.5,7.5,13.1,15,19.8,22.4s13.3,14.8,20,22.2c13.4,14.7,26.8,29.4,40.5,43.9s27.5,28.9,41.6,42.9
	c3.5,3.6,7.1,7,10.6,10.5l5.3,5.2l5.4,5.1l5.4,5.1c1.8,1.7,3.6,3.4,5.5,5.1l11.1,10l-11.2-9.8c-1.9-1.6-3.7-3.3-5.5-5l-5.6-5
	l-5.4-5.1l-5.4-5.2c-3.6-3.5-7.2-6.9-10.7-10.4l-10.6-10.5l-10.5-10.7c-3.5-3.5-6.9-7.1-10.4-10.8s-6.9-7.2-10.3-10.8
	c-13.6-14.5-27.1-29.2-40.4-44.1l-9.9-11.2l-9.9-11.2C223,225.6,216.6,218.1,210.1,210.5z"/>
<path class="st7" d="M654,390.5c-4.3,15-11.2,29.2-20.4,41.8c-3.1,4.2-6.4,8.2-10,12s-7.5,7.2-11.6,10.4c-4.1,3.2-8.5,6-13.1,8.5
	c-9.2,4.9-19.1,8.2-29.4,9.8c5.1-1,10.1-2.4,15-4.1c2.5-0.8,4.8-1.9,7.2-2.9c1.2-0.5,2.3-1.1,3.5-1.7l1.7-0.9l1.7-1
	c9-5,17.2-11.4,24.3-18.9s13.4-15.8,18.5-24.8c2.6-4.5,5-9.1,7.1-13.8C650.6,400.3,652.5,395.4,654,390.5z"/>
<path class="st7" d="M354,406.5c5.4,4.3,10.9,8.5,16.4,12.7s11.1,8.2,16.8,12.2c11.3,8,22.8,15.7,34.6,22.8
	c5.9,3.6,11.9,7.1,18,10.3s12.3,6.4,18.6,9.2c6.3,2.8,12.8,5.3,19.3,7.3c6.6,2.1,13.4,3.3,20.4,3.5c-6.9-0.1-13.8-1.1-20.5-3
	s-13.2-4.3-19.5-7c-6.4-2.7-12.6-5.8-18.7-9.1s-12.1-6.7-18-10.3s-11.7-7.4-17.5-11.2s-11.5-7.8-17-11.9s-11.1-8.2-16.6-12.5
	S359.3,411,354,406.5z"/>
<path class="st2" d="M164.3,255.6c23-23.5,35.9-43.2,36-43.4l-0.3-4.5c-0.4,0.7-49.3,77.3-145,117.4c-21.7,9.1-39.9,15.9-55,21v4.3
	c15.4-5.2,34.1-12.1,56.5-21.5C96.9,311.8,133.6,286.9,164.3,255.6z"/>
<path class="st7" d="M117.1,291.2c9.1-6.3,18-12.9,26.5-20c8.5-7,16.6-14.7,24-22.9c-7.6,8.1-15.7,15.6-24.3,22.5
	c-8.6,7-17.4,13.6-26.6,19.8C98.4,303,79.1,313.9,59,323.2c-19,9-38.8,16.5-59,22.7v0.7c20.4-6,40.3-13.5,59.5-22.4
	C79.6,314.7,98.8,303.7,117.1,291.2z"/>
<path class="st7" d="M33.3,304.4c7.1-3,14.2-6.2,21.2-9.5s14-6.7,20.8-10.4s13.4-7.8,19.9-12.2c6.4-4.4,12.6-9.1,18.4-14.3
	c2.9-2.6,5.7-5.3,8.4-8.1s5.3-5.7,7.7-8.7c2.4-3,4.7-6.2,6.7-9.5c2.1-3.3,3.8-6.7,5.2-10.4c-1.4,3.6-3.3,7-5.4,10.3
	c-2.1,3.2-4.4,6.4-6.9,9.3c-4.9,6-10.4,11.5-16.3,16.5c-11.8,10.1-24.6,18.8-38.2,26.2c-6.8,3.7-13.7,7.1-20.7,10.5
	s-14,6.5-21.1,9.6s-14.2,6.1-21.4,9.1c-3.9,1.6-7.7,3.2-11.6,4.7v0.3c3.9-1.5,7.9-3,11.8-4.5C19,310.4,26.2,307.5,33.3,304.4z"/>
<path class="st11" d="M798,514.3l13.1-8.5h-0.2c-1.9,0-14.5,7.5-14.5,7.5h-4.2c-1.4,0-0.5,2.3-1.4,2.8c-0.5,0.2-5.8,3.3-11,6.2
	L798,514.3z"/>
<path class="st11" d="M813.9,505.7l0.3,0.1l2.5-32l5.1-3.6l4.5,2.7c-0.3-0.4-4.2-4.8-5.4-5s-5.2,4.8-5.2,4.8L813.9,505.7z"/>
<path class="st11" d="M844,505.3l-11.7-1.2l-0.8-11.2l2.5-0.8l0.7-3.3l18.2-1.1c-7.4,0-18.4,0.2-19,0.2c-0.9,0-0.5,3.3-0.5,3.3
	s-2.3,0.5-2.8,0.5s0,13.6,0,13.6l0.6-0.2L844,505.3z"/>
<path class="st11" d="M852.8,517.3c-0.5,0-32.8,2-32.8,2l-10,9.3l11.2-7L852.8,517.3z"/>
<path class="st11" d="M860.8,491.8l35.7,1.5l1.5-1.7l1-11.7l2.2-1.9c-0.5-0.3-4.1-0.1-4.7,0s0.3,13.2-0.1,13.6s-36.1,0.1-36.5-0.2
	l-2,5.8L860.8,491.8z"/>
<polygon class="st11" points="917.5,503 919,505.5 887.5,513.3 "/>
<path class="st12" d="M651.9,521.2c0,0,7.8,2,11.5,2c2.7-0.1,5.5-0.6,8.1-1.4L651.9,521.2z"/>
<path class="st12" d="M589.9,523.5c6.6,0.6,10.7,1.2,11.5,1.2s9.8-1.4,9.8-1.4L589.9,523.5z"/>
<path class="st12" d="M706.7,482.8l39-0.1c0,0-17.7,0.7-20.2,0.7s11.1,0.7,14.6,0.5s-5.8,0.9-13.7,0.7s-20.9-1.4-20.9-1.4
	s-6,0.1-10.2,0.1c-2.2,0-4.3-0.1-6.4-0.5L706.7,482.8z"/>
<path class="st12" d="M594.1,515.4c0,0,11.6,1.8,16.1,3s27.7-0.9,27.7-0.9L594.1,515.4z"/>
<path class="st12" d="M630.7,533.3l30.7-0.3c0,0-10,2.7-13.1,2.7S630.7,533.3,630.7,533.3z"/>
<path class="st12" d="M662.7,543.2c0,0,46.3-0.4,48.4-0.4s-19.8,2.3-23.1,2.6S662.7,543.2,662.7,543.2z"/>
<path class="st12" d="M746.2,491.6c2.4,0,38,0.2,40.9,0s-33.5,2.2-36.6,2C748.9,493.6,747.3,492.9,746.2,491.6z"/>
<path class="st12" d="M678.2,486.8c2.4,0,38,0.2,40.9,0s-33.5,2.2-36.6,2C680.9,488.8,679.3,488.1,678.2,486.8z"/>
<path class="st12" d="M613,513.8c0,0,26.2,1.5,33.5,2.1s18-1.8,18-1.8L613,513.8z"/>
<path class="st12" d="M640.4,503c0,0,12,1.3,15.3,1.8s8.2-1.5,8.2-1.5L640.4,503z"/>
<path class="st12" d="M468.3,572.3c3.5,0.6,7,1.1,10.6,1.3c2.5-0.1,5-0.4,7.4-0.9L468.3,572.3z"/>
<path class="st12" d="M663.5,508.9c0,0,8.2,2.1,12.2,2.1c2.9-0.1,5.8-0.6,8.5-1.5L663.5,508.9z"/>
<path class="st12" d="M521.2,532.7c2.9,0.8,5.9,1.2,8.9,1.2c4.6,0,13.7-0.5,13.7-0.5s6-0.8,4.8-0.8L521.2,532.7z"/>
<path class="st12" d="M425.6,565.2c4.4,1.9,9.2,2.9,14,3c7.3,0,21.6-1.3,21.6-1.3s9.4-2,7.6-2S425.6,565.2,425.6,565.2z"/>
<path class="st12" d="M534,551.5c0,0,28.5,0,35.1-0.4l6.6-0.4c0,0-14.2,2.4-20.2,2.4S534,551.5,534,551.5z"/>
</svg>
